<?xml version="1.0" encoding="utf-8"?>
<!-- Generator: Adobe Illustrator 16.0.0, SVG Export Plug-In . SVG Version: 6.00 Build 0)  -->
<!DOCTYPE svg PUBLIC "-//W3C//DTD SVG 1.1//EN" "http://www.w3.org/Graphics/SVG/1.1/DTD/svg11.dtd">
<svg version="1.1" id="Layer_1" xmlns="http://www.w3.org/2000/svg" xmlns:xlink="http://www.w3.org/1999/xlink" x="0px" y="0px"
	 width="20.205px" height="40.402px" viewBox="0 -20.201 20.205 40.402" enable-background="new 0 -20.201 20.205 40.402"
	 xml:space="preserve">
<g>
	<path fill="#FFFFFF" d="M10.26,0c1.271,0.628,2.541,1.256,3.808,1.887c1.846,0.919,3.688,1.843,5.531,2.765
		c0.076,0.039,0.153,0.075,0.226,0.121c0.503,0.323,0.504,1.049-0.003,1.373c-0.131,0.083-0.275,0.145-0.418,0.217
		c-2.922,1.462-5.85,2.922-8.77,4.391c-0.368,0.187-0.693,0.187-1.063,0c-2.96-1.492-5.925-2.972-8.893-4.447
		C0.375,6.153,0.118,5.976,0,5.644c0-0.12,0-0.238,0-0.357c0.108-0.328,0.35-0.513,0.652-0.664C2.418,3.75,4.176,2.864,5.939,1.985
		C7.274,1.321,8.609,0.661,9.944,0C10.049,0,10.154,0,10.26,0z M17.554,5.463c-0.06-0.034-0.086-0.05-0.115-0.067
		c-2.4-1.2-4.803-2.398-7.201-3.604c-0.11-0.057-0.19-0.038-0.29,0.013C7.584,2.989,5.22,4.172,2.854,5.353
		c-0.06,0.03-0.12,0.064-0.198,0.107c0.101,0.053,0.177,0.094,0.252,0.132c2.336,1.169,4.674,2.334,7.007,3.506
		c0.139,0.07,0.243,0.068,0.379,0c1.646-0.829,3.296-1.651,4.946-2.476C16.003,6.24,16.765,5.859,17.554,5.463z"/>
	<path fill="#FFFFFF" d="M0,9.943c0.117-0.338,0.317-0.61,0.696-0.639c0.19-0.013,0.408,0.035,0.581,0.12
		c1.907,0.943,3.808,1.896,5.71,2.849c0.957,0.479,1.917,0.951,2.869,1.438c0.174,0.088,0.308,0.095,0.489,0.003
		c2.857-1.436,5.716-2.867,8.583-4.289c0.176-0.086,0.402-0.132,0.6-0.116c0.351,0.03,0.604,0.313,0.666,0.659
		c0.057,0.321-0.1,0.666-0.399,0.835c-0.217,0.123-0.444,0.229-0.667,0.338c-2.835,1.418-5.673,2.836-8.507,4.26
		c-0.354,0.178-0.669,0.183-1.027,0.004c-2.986-1.504-5.975-2.996-8.968-4.484C0.327,10.772,0.099,10.583,0,10.259
		C0,10.154,0,10.048,0,9.943z"/>
	<path fill="#FFFFFF" d="M0,14.56c0.012-0.016,0.027-0.027,0.034-0.045c0.219-0.548,0.683-0.729,1.21-0.468
		c2.355,1.175,4.708,2.353,7.062,3.526c0.546,0.273,1.094,0.543,1.636,0.822c0.119,0.062,0.208,0.057,0.326-0.002
		c2.863-1.437,5.727-2.871,8.594-4.297c0.154-0.078,0.33-0.146,0.498-0.162c0.369-0.031,0.697,0.219,0.807,0.568
		c0.107,0.354-0.027,0.729-0.344,0.93c-0.09,0.055-0.184,0.1-0.278,0.146c-2.958,1.479-5.916,2.957-8.874,4.436
		c-0.134,0.066-0.273,0.125-0.41,0.187c-0.105,0-0.21,0-0.315,0c-0.102-0.044-0.205-0.084-0.305-0.136
		c-2.995-1.496-5.988-2.996-8.987-4.486C0.35,15.427,0.107,15.245,0,14.915C0,14.797,0,14.677,0,14.56z"/>
</g>
<g>
	<path fill="#49E6F2" d="M10.26-20.201c1.271,0.628,2.541,1.256,3.808,1.887c1.846,0.919,3.688,1.843,5.531,2.765
		c0.076,0.039,0.153,0.075,0.226,0.121c0.503,0.323,0.504,1.049-0.003,1.373c-0.131,0.083-0.275,0.145-0.418,0.217
		c-2.922,1.462-5.85,2.922-8.77,4.391c-0.368,0.187-0.693,0.187-1.063,0c-2.96-1.492-5.925-2.972-8.893-4.447
		C0.375-14.048,0.118-14.225,0-14.557c0-0.12,0-0.238,0-0.357c0.108-0.328,0.35-0.513,0.652-0.664
		c1.766-0.873,3.524-1.759,5.287-2.638c1.335-0.664,2.67-1.324,4.005-1.985C10.049-20.201,10.154-20.201,10.26-20.201z
		 M17.554-14.738c-0.06-0.034-0.086-0.05-0.115-0.067c-2.4-1.2-4.803-2.398-7.201-3.604c-0.11-0.057-0.19-0.038-0.29,0.013
		c-2.364,1.184-4.728,2.367-7.094,3.548c-0.06,0.03-0.12,0.064-0.198,0.107c0.101,0.053,0.177,0.094,0.252,0.132
		c2.336,1.169,4.674,2.334,7.007,3.506c0.139,0.07,0.243,0.068,0.379,0c1.646-0.829,3.296-1.651,4.946-2.476
		C16.003-13.961,16.765-14.342,17.554-14.738z"/>
	<path fill="#49E6F2" d="M0-10.258c0.117-0.338,0.317-0.61,0.696-0.639c0.19-0.013,0.408,0.035,0.581,0.12
		c1.907,0.943,3.808,1.896,5.71,2.849C7.944-7.45,8.904-6.978,9.856-6.49c0.174,0.088,0.308,0.095,0.489,0.003
		c2.857-1.436,5.716-2.867,8.583-4.289c0.176-0.086,0.402-0.132,0.6-0.116c0.351,0.03,0.604,0.313,0.666,0.659
		c0.057,0.321-0.1,0.666-0.399,0.835c-0.217,0.123-0.444,0.229-0.667,0.338c-2.835,1.418-5.673,2.836-8.507,4.26
		c-0.354,0.178-0.669,0.183-1.027,0.004C6.608-6.3,3.619-7.792,0.626-9.28C0.327-9.429,0.099-9.618,0-9.942
		C0-10.047,0-10.153,0-10.258z"/>
	<path fill="#49E6F2" d="M0-5.642c0.012-0.016,0.027-0.027,0.034-0.045c0.219-0.548,0.683-0.729,1.21-0.468
		c2.355,1.175,4.708,2.353,7.062,3.526C8.852-2.354,9.4-2.085,9.942-1.806c0.119,0.062,0.208,0.057,0.326-0.002
		c2.863-1.437,5.727-2.871,8.594-4.297c0.154-0.078,0.33-0.146,0.498-0.162c0.369-0.031,0.697,0.219,0.807,0.568
		c0.107,0.354-0.027,0.729-0.344,0.93c-0.09,0.055-0.184,0.1-0.278,0.146c-2.958,1.479-5.916,2.957-8.874,4.436
		C10.537-0.12,10.398-0.062,10.261,0c-0.105,0-0.21,0-0.315,0C9.844-0.044,9.741-0.084,9.641-0.136
		C6.646-1.632,3.653-3.132,0.654-4.622C0.35-4.774,0.107-4.956,0-5.286C0-5.404,0-5.524,0-5.642z"/>
</g>
</svg>
