<?xml version="1.0" encoding="utf-8"?>
<!-- Generator: Adobe Illustrator 16.0.0, SVG Export Plug-In . SVG Version: 6.00 Build 0)  -->
<!DOCTYPE svg PUBLIC "-//W3C//DTD SVG 1.1//EN" "http://www.w3.org/Graphics/SVG/1.1/DTD/svg11.dtd">
<svg version="1.1" id="Layer_1" xmlns="http://www.w3.org/2000/svg" xmlns:xlink="http://www.w3.org/1999/xlink" x="0px" y="0px"
	 width="20.325px" height="46.677px" viewBox="0 -23.337 20.325 46.677" enable-background="new 0 -23.337 20.325 46.677"
	 xml:space="preserve">
<path fill="#FFFFFF" d="M20.315,5.716c-0.003-1.079-0.98-1.955-2.179-1.955c-0.122,0-0.245,0.01-0.366,0.029
	c-0.146,0.023-0.292,0.059-0.445,0.098c-0.066,0.018-0.133,0.034-0.199,0.05l-0.152,0.037L16.98,3.83
	c0.028-0.611-0.196-1.181-0.636-1.601c-0.652-0.621-1.674-0.796-2.588-0.425l-0.12,0.05L13.598,1.74
	c-0.359-1.054-0.918-1.578-1.813-1.708c-1.063-0.151-1.882,0.234-2.414,1.141L9.333,1.242L9.25,1.229
	C9.095,1.203,8.941,1.173,8.792,1.14C8.481,1.075,8.193,1.016,7.906,1.03C6.68,1.086,5.823,1.938,5.823,3.101
	c0,1.943,0,3.889,0,5.834v3.363l-0.226,0.059l-0.452-0.548c-0.324-0.391-0.646-0.781-0.96-1.178
	c-0.438-0.553-1.164-0.897-1.892-0.897c-0.179,0-0.355,0.021-0.526,0.063c-0.755,0.176-1.343,0.643-1.613,1.275
	c-0.273,0.643-0.182,1.357,0.251,1.963c0.414,0.582,0.831,1.158,1.247,1.738c1.127,1.566,2.293,3.188,3.398,4.805
	c1.565,2.287,3.7,3.51,6.527,3.735c1.188,0.095,2.358-0.069,3.487-0.474l0.002,0.009c0.031-0.011,0.058-0.024,0.088-0.035
	c0.033-0.012,0.065-0.026,0.099-0.038c3.531-1.328,4.649-4.137,4.887-5.313l-0.01,0.002c0.111-0.471,0.18-0.943,0.182-1.42
	C20.329,12.721,20.329,9.247,20.315,5.716z M15.424,21.226c-0.002,0.001-0.004,0.002-0.008,0.003l-0.113,0.058
	c-0.948,0.471-2.03,0.719-3.133,0.719c-1.798,0-3.544-0.659-4.789-1.809c-0.471-0.434-0.821-0.943-1.161-1.437
	c-0.099-0.146-0.196-0.289-0.299-0.429c-1.245-1.735-2.483-3.477-3.723-5.217l-0.593-0.833c-0.264-0.37-0.176-0.835,0.207-1.077
	c0.389-0.247,0.891-0.155,1.194,0.213c0.804,0.977,1.608,1.951,2.412,2.926c0.324,0.391,0.744,0.53,1.19,0.39
	c0.44-0.139,0.673-0.469,0.673-0.951c0.002-2.633,0.002-5.268,0.002-7.897V5.104c0.001-0.693,0-1.384,0.004-2.08
	c0.004-0.377,0.3-0.666,0.702-0.687h0.04c0.372,0,0.69,0.266,0.739,0.619c0.01,0.077,0.009,0.155,0.007,0.236L8.775,3.271v1.95
	c0,1.464,0,2.93,0.008,4.392c0.001,0.199,0.059,0.409,0.154,0.567c0.188,0.308,0.637,0.461,1.034,0.357
	c0.407-0.112,0.671-0.44,0.673-0.839c0.002-1.129,0.002-2.258,0.001-3.384V4.25c0-0.74,0-1.483,0.003-2.224
	c0-0.396,0.302-0.689,0.716-0.7c0.002,0,0.002,0,0.002,0c0.44,0,0.747,0.279,0.771,0.677c0.003,0.062,0.003,0.117,0.002,0.177v2.529
	c0,1.649,0,3.3,0,4.948c0.001,0.567,0.374,0.949,0.929,0.951c0.568,0,0.936-0.368,0.938-0.942V7.434
	c-0.002-1.216-0.002-2.474,0.013-3.71c0-0.193,0.099-0.43,0.248-0.6C14.45,2.919,14.762,2.871,15.062,3
	C15.353,3.125,15.5,3.358,15.5,3.688c-0.004,2.183-0.004,4.363-0.004,6.545c0,0.535,0.395,0.923,0.938,0.924
	c0.54,0,0.931-0.389,0.933-0.926V7.839c-0.002-0.667-0.002-1.33,0-1.998c0.002-0.479,0.352-0.808,0.844-0.75
	c0.402,0.044,0.644,0.334,0.646,0.777l-0.002,2.765c-0.001,2.267-0.004,4.609,0.007,6.912c0.006,0.842-0.121,1.598-0.365,2.293
	c-0.047,0.123-0.093,0.244-0.145,0.358c-0.007,0.017-0.016,0.032-0.021,0.05C17.572,19.89,16.229,20.802,15.424,21.226z"/>
<path fill="#49E6F2" d="M20.315-17.622c-0.003-1.079-0.98-1.955-2.179-1.955c-0.122,0-0.245,0.01-0.366,0.029
	c-0.146,0.023-0.292,0.059-0.445,0.098c-0.066,0.018-0.133,0.034-0.199,0.05l-0.152,0.037l0.007-0.145
	c0.028-0.611-0.196-1.181-0.636-1.601c-0.652-0.621-1.674-0.796-2.588-0.425l-0.12,0.05l-0.038-0.114
	c-0.359-1.054-0.918-1.578-1.813-1.708c-1.063-0.151-1.882,0.234-2.414,1.141l-0.039,0.069L9.25-22.108
	c-0.155-0.026-0.309-0.056-0.458-0.089c-0.311-0.065-0.599-0.124-0.886-0.11c-1.226,0.056-2.083,0.908-2.083,2.071
	c0,1.943,0,3.889,0,5.834v3.363L5.597-10.98l-0.452-0.548c-0.324-0.391-0.646-0.781-0.96-1.178
	c-0.438-0.553-1.164-0.897-1.892-0.897c-0.179,0-0.355,0.021-0.526,0.063c-0.755,0.176-1.343,0.643-1.613,1.275
	c-0.273,0.643-0.182,1.357,0.251,1.963c0.414,0.582,0.831,1.158,1.247,1.738C2.779-6.998,3.945-5.377,5.05-3.76
	c1.565,2.287,3.7,3.51,6.527,3.735c1.188,0.095,2.358-0.069,3.487-0.474l0.002,0.009c0.031-0.011,0.058-0.024,0.088-0.035
	c0.033-0.012,0.065-0.026,0.099-0.038c3.531-1.328,4.649-4.137,4.887-5.313l-0.01,0.002c0.111-0.471,0.18-0.943,0.182-1.42
	C20.329-10.616,20.329-14.09,20.315-17.622z M15.424-2.111c-0.002,0.001-0.004,0.002-0.008,0.003l-0.113,0.058
	c-0.948,0.471-2.03,0.719-3.133,0.719c-1.798,0-3.544-0.659-4.789-1.809C6.911-3.574,6.561-4.084,6.221-4.577
	C6.122-4.724,6.025-4.866,5.922-5.006c-1.245-1.735-2.483-3.477-3.723-5.217l-0.593-0.833c-0.264-0.37-0.176-0.835,0.207-1.077
	c0.389-0.247,0.891-0.155,1.194,0.213c0.804,0.977,1.608,1.951,2.412,2.926c0.324,0.391,0.744,0.53,1.19,0.39
	c0.44-0.139,0.673-0.469,0.673-0.951c0.002-2.633,0.002-5.268,0.002-7.897v-0.781c0.001-0.693,0-1.384,0.004-2.08
	C7.292-20.69,7.588-20.979,7.99-21h0.04c0.372,0,0.69,0.266,0.739,0.619c0.01,0.077,0.009,0.155,0.007,0.236l-0.001,0.079v1.95
	c0,1.464,0,2.93,0.008,4.392c0.001,0.199,0.059,0.409,0.154,0.567c0.188,0.308,0.637,0.461,1.034,0.357
	c0.407-0.112,0.671-0.44,0.673-0.839c0.002-1.129,0.002-2.258,0.001-3.384v-2.064c0-0.74,0-1.483,0.003-2.224
	c0-0.396,0.302-0.689,0.716-0.7c0.002,0,0.002,0,0.002,0c0.44,0,0.747,0.279,0.771,0.677c0.003,0.062,0.003,0.117,0.002,0.177v2.529
	c0,1.649,0,3.3,0,4.948c0.001,0.567,0.374,0.949,0.929,0.951c0.568,0,0.936-0.368,0.938-0.942v-2.232
	c-0.002-1.216-0.002-2.474,0.013-3.71c0-0.193,0.099-0.43,0.248-0.6c0.185-0.205,0.497-0.253,0.797-0.124
	c0.291,0.125,0.438,0.358,0.438,0.688c-0.004,2.183-0.004,4.363-0.004,6.545c0,0.535,0.395,0.923,0.938,0.924
	c0.54,0,0.931-0.389,0.933-0.926v-2.392c-0.002-0.667-0.002-1.33,0-1.998c0.002-0.479,0.352-0.808,0.844-0.75
	c0.402,0.044,0.644,0.334,0.646,0.777l-0.002,2.765c-0.001,2.267-0.004,4.609,0.007,6.912c0.006,0.842-0.121,1.598-0.365,2.293
	c-0.047,0.123-0.093,0.244-0.145,0.358c-0.007,0.017-0.016,0.032-0.021,0.05C17.572-3.447,16.229-2.535,15.424-2.111z"/>
</svg>
