<?xml version="1.0" encoding="utf-8"?>
<!-- Generator: Adobe Illustrator 16.0.0, SVG Export Plug-In . SVG Version: 6.00 Build 0)  -->
<!DOCTYPE svg PUBLIC "-//W3C//DTD SVG 1.1//EN" "http://www.w3.org/Graphics/SVG/1.1/DTD/svg11.dtd">
<svg version="1.1" id="Layer_1" xmlns="http://www.w3.org/2000/svg" xmlns:xlink="http://www.w3.org/1999/xlink" x="0px" y="0px"
	 width="23.238px" height="45.069px" viewBox="0 -22.535 23.238 45.069" enable-background="new 0 -22.535 23.238 45.069"
	 xml:space="preserve">
<g>
	<path fill="#FFFFFF" d="M21.551,18.781c0.095,0,0.188,0.001,0.282,0.001c0.093,0.003,0.187,0.003,0.279,0.003
		c0.137,0,0.25-0.003,0.353-0.005c0.474-0.016,0.769-0.321,0.773-0.797c0-0.026,0-0.056,0-0.079v-0.035V5.824
		c0-0.642-0.263-0.903-0.906-0.903h-1.844h-3.567V3.3c0.001-0.797,0.001-1.591,0-2.387c0-0.643-0.263-0.904-0.904-0.904h-0.442
		c-1.105,0-2.211,0-3.317,0s-2.213,0-3.317,0c-2.173,0-5.036,0-7.903-0.009H1.027C0.463,0,0.171,0.161,0,0.569v12.67
		c0.027,0.044,0.052,0.093,0.076,0.136c0.071,0.129,0.137,0.25,0.212,0.31c0.113,0.088,0.311,0.153,0.513,0.168
		c0.161,0.015,0.338,0.019,0.557,0.019c0.135,0,0.27-0.002,0.407-0.004c0.144-0.003,0.287-0.005,0.435-0.005h0.295l0.016,0.295
		c0,0.028,0.005,0.058,0.006,0.083c0.004,0.063,0.008,0.125,0.008,0.19l0.001,0.532c0.002,0.59,0.002,1.199-0.001,1.799
		c-0.003,0.395,0.123,0.635,0.41,0.783c0.112,0.06,0.22,0.088,0.33,0.088c0.168,0,0.347-0.068,0.544-0.211
		c0.458-0.325,0.911-0.643,1.391-0.978c0.201-0.14,0.404-0.28,0.609-0.424l0.526-0.376c0,0-0.017,0.79-0.017,0.852
		c0,0.282,0,0.567,0,0.85c0,0.168,0,0.336,0,0.503c0.001,0.672,0.261,0.934,0.927,0.934h2.85c1.067,0,2.477,0,3.905-0.004
		c0.25,0,0.462,0.068,0.671,0.216c1.822,1.282,3.332,2.338,4.749,3.322c0.164,0.113,0.306,0.184,0.42,0.205
		c0.052,0.009,0.104,0.014,0.155,0.014c0.413,0,0.714-0.328,0.719-0.781c0.008-0.551,0.003-1.11,0.003-1.653
		c0-0.239-0.001-0.479-0.001-0.72v-0.599L21.551,18.781L21.551,18.781z M5.576,14.371L4.74,14.955
		c-0.046,0.031-0.091,0.062-0.148,0.1l-0.584,0.393v-1.045c0-0.387,0.002-0.751-0.003-1.115c0-0.138-0.001-0.262-0.026-0.365
		c-0.081-0.317-0.37-0.533-0.716-0.539c-0.333-0.004-0.664-0.004-1.003-0.004c-0.148,0-0.3,0.002-0.451,0.002H1.498V1.513h13.921
		v10.865L11.81,12.38c-1.213,0-2.141-0.002-3.005-0.004c-0.27,0-0.493,0.071-0.709,0.225C7.258,13.194,6.401,13.791,5.576,14.371z
		 M20.503,17.291h-0.038c-0.04,0-0.081,0-0.122,0c-0.038,0-0.078,0-0.116,0c-0.093,0-0.199,0-0.305,0.01
		c-0.41,0.033-0.674,0.313-0.688,0.727c-0.006,0.195-0.005,0.396-0.004,0.592c0.001,0.088,0.001,0.174,0.001,0.262
		c0,0.189,0,0.381,0,0.586v0.863l-0.478-0.301c-0.03-0.021-0.06-0.037-0.085-0.053c-0.05-0.03-0.093-0.057-0.137-0.087
		c-0.28-0.194-0.56-0.392-0.839-0.588c-0.827-0.576-1.681-1.173-2.517-1.769c-0.236-0.166-0.479-0.244-0.77-0.244h-0.004
		c-0.845,0.002-1.748,0.004-2.925,0.004c-0.507,0-1.015,0-1.52-0.002c-0.507,0-1.013,0-1.52,0H7.815c0,0-0.01-0.459-0.01-0.513
		c0-0.125,0-0.25-0.002-0.375C7.802,15.931,7.8,15.438,7.81,14.955c0.005-0.199,0.128-0.388,0.241-0.496
		c0.438-0.422,0.964-0.609,1.705-0.609c0.027,0,0.054,0,0.08,0.001c0.824,0.013,1.723,0.021,2.822,0.021
		c0.625,0,1.25-0.002,1.874-0.004c0.521-0.004,1.042-0.005,1.564-0.005c0.289,0,0.662-0.09,0.782-0.516
		c0.033-0.116,0.038-0.261,0.038-0.398c0.002-1.571,0.002-3.139,0.002-4.708V6.412h4.822v10.878h-0.875
		C20.746,17.291,20.625,17.291,20.503,17.291z"/>
	<circle fill="#FFFFFF" cx="4.685" cy="7.185" r="1.356"/>
	<circle fill="#FFFFFF" cx="8.523" cy="7.185" r="1.357"/>
	<circle fill="#FFFFFF" cx="12.36" cy="7.185" r="1.356"/>
</g>
<g>
	<path fill="#49E6F2" d="M21.551-3.754c0.095,0,0.188,0.001,0.282,0.001c0.093,0.003,0.187,0.003,0.279,0.003
		c0.137,0,0.25-0.003,0.353-0.005c0.474-0.016,0.769-0.321,0.773-0.797c0-0.026,0-0.056,0-0.079v-0.035v-12.045
		c0-0.642-0.263-0.903-0.906-0.903h-1.844h-3.567v-1.621c0.001-0.797,0.001-1.591,0-2.387c0-0.643-0.263-0.904-0.904-0.904h-0.442
		c-1.105,0-2.211,0-3.317,0s-2.213,0-3.317,0c-2.173,0-5.036,0-7.903-0.009H1.027c-0.564,0-0.856,0.161-1.027,0.569v12.67
		C0.027-9.252,0.052-9.203,0.076-9.16c0.071,0.129,0.137,0.25,0.212,0.31c0.113,0.088,0.311,0.153,0.513,0.168
		c0.161,0.015,0.338,0.019,0.557,0.019c0.135,0,0.27-0.002,0.407-0.004c0.144-0.003,0.287-0.005,0.435-0.005h0.295L2.51-8.378
		c0,0.028,0.005,0.058,0.006,0.083c0.004,0.063,0.008,0.125,0.008,0.19l0.001,0.532c0.002,0.59,0.002,1.199-0.001,1.799
		C2.52-5.379,2.646-5.139,2.933-4.99c0.112,0.06,0.22,0.088,0.33,0.088c0.168,0,0.347-0.068,0.544-0.211
		c0.458-0.325,0.911-0.643,1.391-0.978c0.201-0.14,0.404-0.28,0.609-0.424l0.526-0.376c0,0-0.017,0.79-0.017,0.852
		c0,0.282,0,0.567,0,0.85c0,0.168,0,0.336,0,0.503c0.001,0.672,0.261,0.934,0.927,0.934h2.85c1.067,0,2.477,0,3.905-0.004
		c0.25,0,0.462,0.068,0.671,0.216c1.822,1.282,3.332,2.338,4.749,3.322c0.164,0.113,0.306,0.184,0.42,0.205
		C19.89-0.005,19.943,0,19.994,0c0.413,0,0.714-0.328,0.719-0.781c0.008-0.551,0.003-1.11,0.003-1.653
		c0-0.239-0.001-0.479-0.001-0.72v-0.599L21.551-3.754L21.551-3.754z M5.576-8.164L4.74-7.58c-0.046,0.031-0.091,0.062-0.148,0.1
		L4.008-7.088v-1.045c0-0.387,0.002-0.751-0.003-1.115c0-0.138-0.001-0.262-0.026-0.365c-0.081-0.317-0.37-0.533-0.716-0.539
		c-0.333-0.004-0.664-0.004-1.003-0.004c-0.148,0-0.3,0.002-0.451,0.002H1.498v-10.867h13.921v10.865l-3.608,0.002
		c-1.213,0-2.141-0.002-3.005-0.004c-0.27,0-0.493,0.071-0.709,0.225C7.258-9.341,6.401-8.744,5.576-8.164z M20.503-5.244h-0.038
		c-0.04,0-0.081,0-0.122,0c-0.038,0-0.078,0-0.116,0c-0.093,0-0.199,0-0.305,0.01c-0.41,0.033-0.674,0.313-0.688,0.727
		c-0.006,0.195-0.005,0.396-0.004,0.592c0.001,0.088,0.001,0.174,0.001,0.262c0,0.189,0,0.381,0,0.586v0.863l-0.478-0.301
		c-0.03-0.021-0.06-0.037-0.085-0.053c-0.05-0.03-0.093-0.057-0.137-0.087c-0.28-0.194-0.56-0.392-0.839-0.588
		c-0.827-0.576-1.681-1.173-2.517-1.769c-0.236-0.166-0.479-0.244-0.77-0.244h-0.004c-0.845,0.002-1.748,0.004-2.925,0.004
		c-0.507,0-1.015,0-1.52-0.002c-0.507,0-1.013,0-1.52,0H7.815c0,0-0.01-0.459-0.01-0.513c0-0.125,0-0.25-0.002-0.375
		C7.802-6.604,7.8-7.097,7.81-7.58c0.005-0.199,0.128-0.388,0.241-0.496c0.438-0.422,0.964-0.609,1.705-0.609
		c0.027,0,0.054,0,0.08,0.001c0.824,0.013,1.723,0.021,2.822,0.021c0.625,0,1.25-0.002,1.874-0.004
		c0.521-0.004,1.042-0.005,1.564-0.005c0.289,0,0.662-0.09,0.782-0.516c0.033-0.116,0.038-0.261,0.038-0.398
		c0.002-1.571,0.002-3.139,0.002-4.708v-1.828h4.822v10.878h-0.875C20.746-5.244,20.625-5.244,20.503-5.244z"/>
	<circle fill="#49E6F2" cx="4.685" cy="-15.35" r="1.356"/>
	<circle fill="#49E6F2" cx="8.523" cy="-15.35" r="1.357"/>
	<circle fill="#49E6F2" cx="12.36" cy="-15.35" r="1.356"/>
</g>
</svg>
