<?xml version="1.0" encoding="utf-8"?>
<!-- Generator: Adobe Illustrator 16.0.0, SVG Export Plug-In . SVG Version: 6.00 Build 0)  -->
<!DOCTYPE svg PUBLIC "-//W3C//DTD SVG 1.1//EN" "http://www.w3.org/Graphics/SVG/1.1/DTD/svg11.dtd">
<svg version="1.1" id="Layer_1" xmlns="http://www.w3.org/2000/svg" xmlns:xlink="http://www.w3.org/1999/xlink" x="0px" y="0px"
	 width="23.238px" height="45.069px" viewBox="0 -22.535 23.238 45.069" enable-background="new 0 -22.535 23.238 45.069"
	 xml:space="preserve">
<g>
	<path fill="#FFFFFF" d="M21.551,18.78c0.095,0,0.188,0.005,0.282,0.005c0.093,0,0.187,0,0.279,0c0.137,0,0.25,0,0.353-0.007
		c0.474-0.015,0.769-0.319,0.773-0.796c0-0.027,0-0.053,0-0.078v-0.035V5.824c0-0.643-0.263-0.904-0.906-0.904l-1.844-0.002
		L16.921,4.92V3.301c0.001-0.797,0.001-1.592,0-2.388c0-0.642-0.263-0.905-0.904-0.905h-0.442c-1.105,0-2.211,0-3.317,0.002
		c-1.106,0-2.213,0-3.317,0C6.766,0.01,3.904,0.008,1.036,0H1.027C0.463,0,0.171,0.16,0,0.568v12.67
		c0.027,0.047,0.052,0.092,0.076,0.137c0.071,0.129,0.137,0.25,0.212,0.309c0.113,0.09,0.311,0.154,0.513,0.17
		c0.161,0.012,0.338,0.018,0.557,0.018c0.135,0,0.27-0.002,0.407-0.004c0.144-0.002,0.287-0.004,0.435-0.004h0.295l0.016,0.293
		c0,0.029,0.005,0.059,0.006,0.086c0.004,0.061,0.008,0.122,0.008,0.188l0.001,0.531c0.002,0.592,0.002,1.201-0.001,1.801
		c-0.003,0.393,0.123,0.636,0.41,0.783c0.112,0.059,0.22,0.088,0.33,0.088c0.168,0,0.347-0.068,0.544-0.211
		c0.458-0.325,0.911-0.644,1.391-0.977c0.201-0.14,0.404-0.281,0.609-0.426l0.526-0.375c0,0-0.017,0.791-0.017,0.852
		c0,0.282,0,0.567,0,0.851c0,0.167,0,0.334,0,0.501c0.001,0.673,0.261,0.934,0.927,0.934l2.85,0.001
		c1.067,0,2.477-0.001,3.905-0.004c0.25,0,0.462,0.068,0.671,0.216c1.822,1.281,3.332,2.34,4.749,3.323
		c0.164,0.113,0.306,0.183,0.42,0.204c0.052,0.009,0.104,0.014,0.155,0.014c0.413,0,0.714-0.328,0.719-0.781
		c0.008-0.551,0.003-1.111,0.003-1.654c0-0.237-0.001-0.479-0.001-0.719v-0.6L21.551,18.78L21.551,18.78z M5.576,14.371L4.74,14.953
		c-0.046,0.032-0.091,0.063-0.148,0.103l-0.584,0.393v-1.047c0-0.386,0.002-0.75-0.003-1.114c0-0.138-0.001-0.263-0.026-0.365
		c-0.081-0.317-0.37-0.533-0.716-0.539c-0.333-0.006-0.664-0.004-1.003-0.002c-0.148,0-0.3,0-0.451,0H1.498V1.514h13.921V12.38
		H11.81c-1.213,0-2.141,0-3.005-0.004c-0.27,0-0.493,0.071-0.709,0.226C7.258,13.194,6.401,13.791,5.576,14.371z M20.503,17.291
		h-0.038c-0.04,0-0.081,0-0.122,0c-0.038,0-0.078,0-0.116,0c-0.093,0-0.199,0-0.305,0.011c-0.41,0.034-0.674,0.313-0.688,0.727
		c-0.006,0.196-0.005,0.397-0.004,0.591c0.001,0.088,0.001,0.174,0.001,0.262c0,0.189,0,0.38,0,0.586v0.863l-0.478-0.301
		c-0.03-0.021-0.06-0.037-0.085-0.052c-0.05-0.033-0.093-0.058-0.137-0.089c-0.28-0.195-0.56-0.391-0.839-0.587
		c-0.827-0.575-1.681-1.173-2.517-1.767c-0.236-0.168-0.479-0.246-0.77-0.246v-0.312l0,0l-0.004,0.312
		c-0.845,0.002-1.748,0.002-2.925,0.002c-0.507,0-1.015,0-1.52,0c-0.507,0-1.013,0-1.52,0H7.815c0,0-0.01-0.457-0.01-0.515
		c0-0.123,0-0.247-0.002-0.373C7.802,15.93,7.8,15.438,7.81,14.953c0.005-0.197,0.128-0.387,0.241-0.496
		c0.438-0.42,0.964-0.608,1.705-0.608c0.027,0,0.054,0,0.08,0.001c0.824,0.015,1.723,0.02,2.822,0.02
		c0.625,0,1.25-0.002,1.874-0.002c0.521-0.003,1.042-0.004,1.564-0.004c0.289-0.001,0.662-0.09,0.782-0.518
		c0.033-0.116,0.038-0.262,0.038-0.397c0.002-1.57,0.002-3.139,0.002-4.708V6.412h4.822v10.878h-0.875
		C20.746,17.291,20.625,17.291,20.503,17.291z"/>
	<path fill="#FFFFFF" d="M11.978,3.862c-0.837-0.002-1.673-0.002-2.51,0c-0.677,0-1.354,0-2.032,0C7.094,3.86,6.752,3.86,6.41,3.86
		c-0.487,0-0.972,0.002-1.458,0.002c-0.419,0.003-0.745,0.329-0.743,0.74c0,0.404,0.326,0.735,0.724,0.736
		C5.972,5.34,7.011,5.342,8.05,5.342c1.453,0,2.739-0.004,3.934-0.013c0.128-0.001,0.31-0.068,0.463-0.174
		c0.235-0.163,0.328-0.486,0.227-0.79C12.571,4.062,12.299,3.865,11.978,3.862z"/>
	<path fill="#FFFFFF" d="M8.699,6.705c-1.25,0-2.5,0-3.75,0.004c-0.234,0-0.425,0.092-0.567,0.271
		C4.187,7.227,4.154,7.479,4.279,7.751c0.136,0.298,0.358,0.436,0.7,0.436c0.439,0,0.881,0,1.321,0h2.18
		c0.338,0,0.675,0.003,1.013,0.003c0.337,0,0.674,0,1.012,0c0.565,0,1.027-0.001,1.454-0.005c0.434-0.003,0.747-0.311,0.75-0.729
		c0-0.204-0.074-0.395-0.212-0.533c-0.135-0.138-0.318-0.212-0.519-0.212C10.982,6.705,9.91,6.705,8.699,6.705z"/>
	<path fill="#FFFFFF" d="M6.562,9.462c-1.25,0-0.362,0.001-1.612,0.004c-0.234,0-0.425,0.092-0.567,0.272
		c-0.194,0.247-0.229,0.498-0.103,0.77c0.136,0.3,0.358,0.439,0.7,0.439c0.439,0,0.881,0,1.321,0h0.041c0.339,0,0.677,0,1.014,0
		c0.337,0.001-0.091,0.001,0.246,0.001c0.565,0,0.073-0.001,0.502-0.005c0.432-0.003,0.747-0.31,0.749-0.729
		c0-0.204-0.075-0.396-0.214-0.534C8.504,9.542,8.321,9.469,8.121,9.468C7.126,9.463,7.773,9.462,6.562,9.462z"/>
</g>
<g>
	<path fill="#49E6F2" d="M21.551-3.755c0.095,0,0.188,0.005,0.282,0.005c0.093,0,0.187,0,0.279,0c0.137,0,0.25,0,0.353-0.007
		c0.474-0.015,0.769-0.319,0.773-0.796c0-0.027,0-0.053,0-0.078v-0.035v-12.045c0-0.643-0.263-0.904-0.906-0.904l-1.844-0.002
		l-3.567,0.002v-1.619c0.001-0.797,0.001-1.592,0-2.388c0-0.642-0.263-0.905-0.904-0.905h-0.442c-1.105,0-2.211,0-3.317,0.002
		c-1.106,0-2.213,0-3.317,0c-2.173,0-5.035-0.002-7.903-0.01H1.027c-0.564,0-0.856,0.16-1.027,0.568v12.67
		C0.027-9.25,0.052-9.205,0.076-9.16c0.071,0.129,0.137,0.25,0.212,0.309c0.113,0.09,0.311,0.154,0.513,0.17
		C0.962-8.67,1.138-8.664,1.357-8.664c0.135,0,0.27-0.002,0.407-0.004C1.908-8.67,2.052-8.672,2.199-8.672h0.295L2.51-8.379
		c0,0.029,0.005,0.059,0.006,0.086c0.004,0.061,0.008,0.122,0.008,0.188l0.001,0.531c0.002,0.592,0.002,1.201-0.001,1.801
		C2.52-5.381,2.646-5.138,2.933-4.99c0.112,0.059,0.22,0.088,0.33,0.088c0.168,0,0.347-0.068,0.544-0.211
		C4.265-5.438,4.719-5.757,5.198-6.09c0.201-0.14,0.404-0.281,0.609-0.426l0.526-0.375c0,0-0.017,0.791-0.017,0.852
		c0,0.282,0,0.567,0,0.851c0,0.167,0,0.334,0,0.501c0.001,0.673,0.261,0.934,0.927,0.934l2.85,0.001
		c1.067,0,2.477-0.001,3.905-0.004c0.25,0,0.462,0.068,0.671,0.216c1.822,1.281,3.332,2.34,4.749,3.323
		c0.164,0.113,0.306,0.183,0.42,0.204C19.89-0.005,19.943,0,19.994,0c0.413,0,0.714-0.328,0.719-0.781
		c0.008-0.551,0.003-1.111,0.003-1.654c0-0.237-0.001-0.479-0.001-0.719v-0.6L21.551-3.755L21.551-3.755z M5.576-8.164L4.74-7.582
		C4.694-7.55,4.649-7.519,4.592-7.479L4.008-7.087v-1.047c0-0.386,0.002-0.75-0.003-1.114c0-0.138-0.001-0.263-0.026-0.365
		c-0.081-0.317-0.37-0.533-0.716-0.539c-0.333-0.006-0.664-0.004-1.003-0.002c-0.148,0-0.3,0-0.451,0H1.498v-10.866h13.921v10.866
		H11.81c-1.213,0-2.141,0-3.005-0.004c-0.27,0-0.493,0.071-0.709,0.226C7.258-9.341,6.401-8.744,5.576-8.164z M20.503-5.244h-0.038
		c-0.04,0-0.081,0-0.122,0c-0.038,0-0.078,0-0.116,0c-0.093,0-0.199,0-0.305,0.011c-0.41,0.034-0.674,0.313-0.688,0.727
		c-0.006,0.196-0.005,0.397-0.004,0.591c0.001,0.088,0.001,0.174,0.001,0.262c0,0.189,0,0.38,0,0.586v0.863l-0.478-0.301
		c-0.03-0.021-0.06-0.037-0.085-0.052c-0.05-0.033-0.093-0.058-0.137-0.089c-0.28-0.195-0.56-0.391-0.839-0.587
		C16.866-3.809,16.012-4.406,15.177-5c-0.236-0.168-0.479-0.246-0.77-0.246v-0.312l0,0l-0.004,0.312
		c-0.845,0.002-1.748,0.002-2.925,0.002c-0.507,0-1.015,0-1.52,0c-0.507,0-1.013,0-1.52,0H7.815c0,0-0.01-0.457-0.01-0.515
		c0-0.123,0-0.247-0.002-0.373C7.802-6.604,7.8-7.097,7.81-7.582c0.005-0.197,0.128-0.387,0.241-0.496
		c0.438-0.42,0.964-0.608,1.705-0.608c0.027,0,0.054,0,0.08,0.001c0.824,0.015,1.723,0.02,2.822,0.02
		c0.625,0,1.25-0.002,1.874-0.002c0.521-0.003,1.042-0.004,1.564-0.004c0.289-0.001,0.662-0.09,0.782-0.518
		c0.033-0.116,0.038-0.262,0.038-0.397c0.002-1.57,0.002-3.139,0.002-4.708v-1.828h4.822v10.878h-0.875
		C20.746-5.244,20.625-5.244,20.503-5.244z"/>
	<path fill="#49E6F2" d="M11.978-18.673c-0.837-0.002-1.673-0.002-2.51,0c-0.677,0-1.354,0-2.032,0
		c-0.343-0.002-0.685-0.002-1.026-0.002c-0.487,0-0.972,0.002-1.458,0.002c-0.419,0.003-0.745,0.329-0.743,0.74
		c0,0.404,0.326,0.735,0.724,0.736c1.04,0.002,2.079,0.004,3.117,0.004c1.453,0,2.739-0.004,3.934-0.013
		c0.128-0.001,0.31-0.068,0.463-0.174c0.235-0.163,0.328-0.486,0.227-0.79C12.571-18.473,12.299-18.67,11.978-18.673z"/>
	<path fill="#49E6F2" d="M8.699-15.83c-1.25,0-2.5,0-3.75,0.004c-0.234,0-0.425,0.092-0.567,0.271
		c-0.194,0.247-0.228,0.499-0.103,0.771c0.136,0.298,0.358,0.436,0.7,0.436c0.439,0,0.881,0,1.321,0h2.18
		c0.338,0,0.675,0.003,1.013,0.003c0.337,0,0.674,0,1.012,0c0.565,0,1.027-0.001,1.454-0.005c0.434-0.003,0.747-0.311,0.75-0.729
		c0-0.204-0.074-0.395-0.212-0.533c-0.135-0.138-0.318-0.212-0.519-0.212C10.982-15.83,9.91-15.83,8.699-15.83z"/>
	<path fill="#49E6F2" d="M6.562-13.073c-1.25,0-0.362,0.001-1.612,0.004c-0.234,0-0.425,0.092-0.567,0.272
		c-0.194,0.247-0.229,0.498-0.103,0.77c0.136,0.3,0.358,0.439,0.7,0.439c0.439,0,0.881,0,1.321,0h0.041c0.339,0,0.677,0,1.014,0
		c0.337,0.001-0.091,0.001,0.246,0.001c0.565,0,0.073-0.001,0.502-0.005c0.432-0.003,0.747-0.31,0.749-0.729
		c0-0.204-0.075-0.396-0.214-0.534c-0.136-0.138-0.318-0.211-0.519-0.212C7.126-13.072,7.773-13.073,6.562-13.073z"/>
</g>
</svg>
