<?xml version="1.0" encoding="utf-8"?>
<!-- Generator: Adobe Illustrator 16.0.0, SVG Export Plug-In . SVG Version: 6.00 Build 0)  -->
<!DOCTYPE svg PUBLIC "-//W3C//DTD SVG 1.1//EN" "http://www.w3.org/Graphics/SVG/1.1/DTD/svg11.dtd">
<svg version="1.1" id="Layer_1" xmlns="http://www.w3.org/2000/svg" xmlns:xlink="http://www.w3.org/1999/xlink" x="0px" y="0px"
	 width="18.002px" height="46.565px" viewBox="0 0 18.002 46.565" enable-background="new 0 0 18.002 46.565" xml:space="preserve">
<g>
	<path fill="#49E6F2" d="M18,28.126c0-0.129-0.016-0.256-0.047-0.377c-0.209-0.791-0.826-1.25-1.695-1.26
		c-0.336-0.002-0.674-0.002-1.01-0.002l-1.646-0.002c-0.039,0-0.08-0.002-0.125-0.004v-0.137c0-0.234,0-0.572,0-0.924
		c0-0.48,0-0.988-0.002-1.311c-0.006-0.471-0.357-0.826-0.838-0.826c-1.693,0-3.387-0.002-5.08-0.002H5.441
		c-0.566,0-0.895,0.328-0.9,0.896c-0.004,0.398-0.004,1.105-0.002,1.666v0.523c0,0.041-0.002,0.08-0.004,0.121l-1.02-0.002
		l-1.74,0.002c-1.082,0.002-1.76,0.67-1.771,1.742C-0.002,28.806,0,29.718,0,30.446v0.588c0,0.039,0.006,0.078,0.012,0.121
		c0.002,0.023,0.006,0.049,0.01,0.078l0.01,0.113h1.297v2.924c-0.002,3.522-0.002,6.817,0.006,10.481
		c0,0.232,0.029,0.572,0.166,0.879c0.268,0.619,0.795,0.934,1.564,0.934l1.689,0.002l10.201-0.002c0.436,0,0.791-0.107,1.084-0.332
		c0.439-0.334,0.652-0.813,0.65-1.463c-0.006-4.445-0.002-8.366,0-12.774V31.47c0-0.041,0.002-0.084,0.004-0.131h1.273l0.025-0.152
		c0.006-0.033,0.01-0.057,0.01-0.08v-0.738C18.002,29.614,18.002,28.718,18,28.126z M15.033,44.82
		c0.006,0.066-0.006,0.082-0.006,0.082s-0.018,0.018-0.111,0.018c-0.346-0.002-0.691-0.002-1.039-0.002L3.182,44.919
		c-0.092,0-0.188,0-0.197,0.002c-0.01-0.021-0.01-0.111-0.01-0.201L2.973,31.358h12.059v13.229l-0.002,0.066
		C15.027,44.708,15.027,44.765,15.033,44.82z M6.203,26.478v-1.531h5.6v1.531H6.203z M1.658,28.144c0.01-0.006,0.041-0.01,0.09-0.01
		c0.137,0.002,0.273,0.002,0.41,0.002l0.818-0.002c4.393,0.002,8.787,0.004,13.182,0.004c0.084,0,0.172,0,0.178-0.004
		c0.012,0.023,0.012,0.121,0.012,0.199c0.002,0.213,0,0.713,0,1.098v0.258H1.66C1.66,29.267,1.66,28.483,1.658,28.144z"/>
	<rect x="11.436" y="33.31" fill="#49E6F2" width="1.635" height="10.043"/>
	<rect x="8.199" y="33.308" fill="#49E6F2" width="1.631" height="10.047"/>
	<path fill="#49E6F2" d="M5.262,33.29c-0.291,0-0.324,0.199-0.324,0.35c0.006,2.693,0.006,4.477,0.008,6.68v2.674
		c0,0.07,0.006,0.143,0.012,0.242l0.008,0.117h1.627V33.294l-0.844,0.002C5.594,33.296,5.441,33.296,5.262,33.29z"/>
</g>
<g>
	<path fill="#3E36C4" d="M18,4.844c0-0.129-0.016-0.256-0.047-0.377c-0.209-0.791-0.826-1.25-1.695-1.26
		c-0.336-0.002-0.674-0.002-1.01-0.002l-1.646-0.002c-0.039,0-0.08-0.002-0.125-0.004V3.063c0-0.234,0-0.572,0-0.924
		c0-0.48,0-0.988-0.002-1.311c-0.006-0.471-0.357-0.826-0.838-0.826C10.943,0.002,9.25,0,7.557,0H5.441
		c-0.566,0-0.895,0.328-0.9,0.896C4.537,1.295,4.537,2.002,4.539,2.563v0.523c0,0.041-0.002,0.08-0.004,0.121l-1.02-0.002
		l-1.74,0.002c-1.082,0.002-1.76,0.67-1.771,1.742C-0.002,5.523,0,6.436,0,7.164v0.588C0,7.791,0.006,7.83,0.012,7.873
		c0.002,0.023,0.006,0.049,0.01,0.078l0.01,0.113h1.297v2.924c-0.002,3.521-0.002,6.816,0.006,10.48
		c0,0.232,0.029,0.572,0.166,0.879c0.268,0.619,0.795,0.934,1.564,0.934l1.689,0.002l10.201-0.002c0.436,0,0.791-0.107,1.084-0.332
		c0.439-0.334,0.652-0.813,0.65-1.463c-0.006-4.445-0.002-8.365,0-12.773V8.188c0-0.041,0.002-0.084,0.004-0.131h1.273l0.025-0.152
		c0.006-0.033,0.01-0.057,0.01-0.08V7.086C18.002,6.332,18.002,5.436,18,4.844z M15.033,21.537c0.006,0.066-0.006,0.082-0.006,0.082
		s-0.018,0.018-0.111,0.018c-0.346-0.002-0.691-0.002-1.039-0.002L3.182,21.637c-0.092,0-0.188,0-0.197,0.002
		c-0.01-0.021-0.01-0.111-0.01-0.201L2.973,8.076h12.059v13.229l-0.002,0.066C15.027,21.426,15.027,21.482,15.033,21.537z
		 M6.203,3.195V1.664h5.6v1.531H6.203z M1.658,4.861c0.01-0.006,0.041-0.01,0.09-0.01c0.137,0.002,0.273,0.002,0.41,0.002
		l0.818-0.002c4.393,0.002,8.787,0.004,13.182,0.004c0.084,0,0.172,0,0.178-0.004c0.012,0.023,0.012,0.121,0.012,0.199
		c0.002,0.213,0,0.713,0,1.098v0.258H1.66C1.66,5.984,1.66,5.201,1.658,4.861z"/>
	<rect x="11.436" y="10.027" fill="#3E36C4" width="1.635" height="10.043"/>
	<rect x="8.199" y="10.025" fill="#3E36C4" width="1.631" height="10.047"/>
	<path fill="#3E36C4" d="M5.262,10.008c-0.291,0-0.324,0.199-0.324,0.35c0.006,2.693,0.006,4.477,0.008,6.68v2.674
		c0,0.07,0.006,0.143,0.012,0.242l0.008,0.117h1.627V10.012l-0.844,0.002C5.594,10.014,5.441,10.014,5.262,10.008z"/>
</g>
</svg>
