<?xml version="1.0" encoding="utf-8"?>
<!-- Generator: Adobe Illustrator 16.0.0, SVG Export Plug-In . SVG Version: 6.00 Build 0)  -->
<!DOCTYPE svg PUBLIC "-//W3C//DTD SVG 1.1//EN" "http://www.w3.org/Graphics/SVG/1.1/DTD/svg11.dtd">
<svg version="1.1" id="Layer_1" xmlns="http://www.w3.org/2000/svg" xmlns:xlink="http://www.w3.org/1999/xlink" x="0px" y="0px"
	 width="19.629px" height="39.194px" viewBox="0 -19.596 19.629 39.194" enable-background="new 0 -19.596 19.629 39.194"
	 xml:space="preserve">
<path fill="#FFFFFF" d="M19.596,1.891c0.005-0.372-0.092-0.7-0.291-1.03c-0.456-0.744-1.398-1.023-2.188-0.766
	c-0.476,0.154-0.945,0.317-1.416,0.479c-0.765,0.261-1.527,0.521-2.289,0.784V1.355l-3.296,1.098
	c-0.018,0.006-0.031,0.003-0.049,0.009c-0.17,0.059-0.44,0.15-0.771,0.265L9.247,2.74l0,0c-2.02,0.692-6.401,2.18-7.426,2.527
	C1.466,5.389,1.105,5.488,0.786,5.701c-0.596,0.397-0.909,1.18-0.741,1.87C0.196,8.203,0.591,8.625,1.17,8.877
	c0.826,0.358,1.657,0.706,2.487,1.058c1.365,0.582,2.73,1.162,4.097,1.74c0.083,0.036,0.134,0.083,0.168,0.169
	c0.231,0.56,0.469,1.117,0.705,1.675c0.525,1.24,1.051,2.481,1.579,3.724c0.199,0.466,0.384,0.938,0.621,1.39
	c0.316,0.606,0.842,0.956,1.53,0.967c0.779,0.014,1.364-0.357,1.687-1.063c0.209-0.459,0.347-0.95,0.511-1.432
	c0.552-1.621,1.103-3.245,1.649-4.866c0.522-1.546,1.041-3.092,1.563-4.636c0.302-0.89,0.605-1.776,0.908-2.668
	c0.256-0.752,0.515-1.502,0.76-2.257c0.083-0.256,0.132-0.519,0.195-0.777C19.618,1.897,19.607,1.896,19.596,1.891z M17.823,2.09
	c-0.387,1.145-0.771,2.292-1.152,3.438c-0.699,2.091-1.396,4.183-2.094,6.272c-0.639,1.911-1.277,3.818-1.914,5.729
	c-0.041,0.12-0.104,0.22-0.242,0.225c-0.141,0.003-0.215-0.086-0.266-0.211c-0.189-0.48-0.384-0.96-0.576-1.438
	c-0.604-1.489-1.203-2.979-1.813-4.466c-0.105-0.258-0.078-0.472,0.087-0.683c0.157-0.2,0.306-0.407,0.457-0.613
	C11,9.408,11.692,8.476,12.383,7.541c0.072-0.101,0.089-0.201-0.006-0.295c-0.088-0.087-0.186-0.07-0.28-0.003
	c-0.103,0.072-0.205,0.147-0.308,0.224c-1.065,0.78-2.133,1.563-3.198,2.348C8.398,9.955,8.207,9.978,7.984,9.886
	c-1.269-0.518-2.54-1.031-3.809-1.547C3.458,8.047,2.741,7.756,2.022,7.466C1.895,7.415,1.777,7.352,1.786,7.188
	c0.008-0.163,0.137-0.21,0.264-0.252C2.889,6.65,8.36,4.78,9.2,4.494c0.25-0.085,0.499-0.174,0.748-0.259L9.95,4.239l3.833-1.251
	L13.78,2.979c0.09-0.027,0.18-0.048,0.27-0.077c1.146-0.381,2.289-0.768,3.436-1.154c0.107-0.033,0.213-0.05,0.303,0.042
	C17.875,1.881,17.859,1.981,17.823,2.09z"/>
<path fill="#49E6F2" d="M19.596-17.707c0.005-0.372-0.092-0.7-0.291-1.03c-0.456-0.744-1.398-1.023-2.188-0.766
	c-0.476,0.154-0.945,0.317-1.416,0.479c-0.765,0.261-1.527,0.521-2.289,0.784v-0.003l-3.296,1.098
	c-0.018,0.006-0.031,0.003-0.049,0.009c-0.17,0.059-0.44,0.15-0.771,0.265l-0.049,0.014l0,0c-2.02,0.692-6.401,2.18-7.426,2.527
	c-0.355,0.122-0.716,0.221-1.035,0.435c-0.596,0.397-0.909,1.18-0.741,1.87c0.151,0.632,0.546,1.054,1.125,1.306
	c0.826,0.358,1.657,0.706,2.487,1.058c1.365,0.582,2.73,1.162,4.097,1.74C7.837-7.886,7.888-7.84,7.922-7.754
	c0.231,0.56,0.469,1.117,0.705,1.675c0.525,1.24,1.051,2.481,1.579,3.724c0.199,0.466,0.384,0.938,0.621,1.39
	c0.316,0.606,0.842,0.956,1.53,0.967c0.779,0.014,1.364-0.357,1.687-1.063c0.209-0.459,0.347-0.95,0.511-1.432
	c0.552-1.621,1.103-3.245,1.649-4.866c0.522-1.546,1.041-3.092,1.563-4.636c0.302-0.89,0.605-1.776,0.908-2.668
	c0.256-0.752,0.515-1.502,0.76-2.257c0.083-0.256,0.132-0.519,0.195-0.777C19.618-17.701,19.607-17.702,19.596-17.707z
	 M17.823-17.508c-0.387,1.145-0.771,2.292-1.152,3.438c-0.699,2.091-1.396,4.183-2.094,6.272c-0.639,1.911-1.277,3.818-1.914,5.729
	c-0.041,0.12-0.104,0.22-0.242,0.225c-0.141,0.003-0.215-0.086-0.266-0.211c-0.189-0.48-0.384-0.96-0.576-1.438
	c-0.604-1.489-1.203-2.979-1.813-4.466C9.66-8.218,9.687-8.431,9.852-8.642c0.157-0.2,0.306-0.407,0.457-0.613
	c0.691-0.934,1.383-1.866,2.074-2.801c0.072-0.101,0.089-0.201-0.006-0.295c-0.088-0.087-0.186-0.07-0.28-0.003
	c-0.103,0.072-0.205,0.147-0.308,0.224c-1.065,0.78-2.133,1.563-3.198,2.348C8.398-9.642,8.207-9.62,7.984-9.712
	c-1.269-0.518-2.54-1.031-3.809-1.547c-0.717-0.292-1.434-0.583-2.153-0.873c-0.127-0.051-0.245-0.114-0.236-0.278
	c0.008-0.163,0.137-0.21,0.264-0.252c0.839-0.286,6.31-2.156,7.15-2.441c0.25-0.085,0.499-0.174,0.748-0.259l0.002,0.003
	l3.833-1.251l-0.004-0.009c0.09-0.027,0.18-0.048,0.27-0.077c1.146-0.381,2.289-0.768,3.436-1.154
	c0.107-0.033,0.213-0.05,0.303,0.042C17.875-17.717,17.859-17.617,17.823-17.508z"/>
</svg>
