<?xml version="1.0" encoding="utf-8"?>
<!-- Generator: Adobe Illustrator 16.0.0, SVG Export Plug-In . SVG Version: 6.00 Build 0)  -->
<!DOCTYPE svg PUBLIC "-//W3C//DTD SVG 1.1//EN" "http://www.w3.org/Graphics/SVG/1.1/DTD/svg11.dtd">
<svg version="1.1" id="Layer_1" xmlns="http://www.w3.org/2000/svg" xmlns:xlink="http://www.w3.org/1999/xlink" x="0px" y="0px"
	 width="30.08px" height="46.75px" viewBox="0 0 30.08 46.75" enable-background="new 0 0 30.08 46.75" xml:space="preserve">
<g>
	<path fill-rule="evenodd" clip-rule="evenodd" fill="#3E36C4" d="M12.481,5.002c3.923,0,7.846,0,11.768,0
		c0.43,0,0.668,0.242,0.668,0.676c0,5.668,0,11.336,0.002,17.004c0,0.309-0.138,0.523-0.398,0.662
		c-0.059,0.031-0.141,0.029-0.211,0.029c-1.646,0.002-3.291,0.002-4.936,0.002c-6.238,0-12.478,0-18.716,0
		C0.296,23.375,0,23.076,0,22.709c-0.001-5.68,0-11.359,0-17.037c0-0.402,0.264-0.67,0.665-0.67
		C4.604,5.002,8.543,5.002,12.481,5.002z M16.679,13.699c0.073,0.1,0.123,0.17,0.178,0.24c1.289,1.666,2.58,3.332,3.867,5
		c0.078,0.104,0.164,0.148,0.295,0.146c0.649-0.006,1.298-0.002,1.947-0.004c0.219,0,0.219,0,0.219-0.227
		c0-3.787,0-7.574-0.002-11.363c0-0.084-0.006-0.168-0.009-0.252c-0.008-0.162-0.088-0.293-0.235-0.336
		c-0.179-0.051-0.369-0.078-0.556-0.078C15.779,6.822,9.177,6.822,2.575,6.822c-0.102,0-0.201,0.004-0.303,0.01
		c-0.363,0.016-0.53,0.182-0.53,0.545c-0.003,2.545-0.003,5.092-0.001,7.637c0,0.055,0.023,0.105,0.044,0.195
		c1.373-1.836,2.718-3.635,4.074-5.451c0.054,0.059,0.095,0.096,0.128,0.139c0.37,0.463,0.74,0.926,1.108,1.389
		c0.943,1.191,1.886,2.387,2.829,3.576c0.916,1.156,1.835,2.311,2.752,3.469c0.137,0.172,0.138,0.176,0.276,0.002
		c1.058-1.314,2.114-2.631,3.172-3.945C16.302,14.164,16.48,13.943,16.679,13.699z"/>
	<path fill-rule="evenodd" clip-rule="evenodd" fill="#3E36C4" d="M17.604,0c3.95,0,7.9,0,11.851,0c0.378,0,0.625,0.246,0.625,0.619
		c0,5.662,0,11.324,0,16.988c0,0.412-0.263,0.678-0.671,0.678c-0.968,0.002-1.936-0.002-2.904,0.004
		c-0.147,0-0.203-0.029-0.199-0.193c0.014-0.459,0.01-0.918,0.001-1.377c-0.003-0.139,0.044-0.17,0.172-0.168
		c0.392,0.006,0.783,0.004,1.175,0.002c0.373-0.002,0.642-0.252,0.678-0.627c0.007-0.072,0.007-0.145,0.007-0.217
		c0.001-4.432,0.001-8.863,0-13.295c0-0.061,0.001-0.123-0.003-0.184c-0.019-0.271-0.197-0.455-0.47-0.477
		C27.748,1.742,27.63,1.74,27.513,1.74c-6.607,0-13.216,0-19.824,0.004c-0.182,0-0.368,0.02-0.543,0.068
		C6.916,1.875,6.813,2.033,6.812,2.273C6.808,2.684,6.805,3.092,6.813,3.5c0.003,0.141-0.04,0.182-0.179,0.18
		c-0.465-0.008-0.93-0.006-1.395,0C5.108,3.682,5.07,3.641,5.071,3.508c0.004-0.975,0.014-1.949-0.005-2.922
		C5.062,0.309,5.421,0.01,5.636,0.002C5.692-0.002,5.748,0,5.804,0C9.738,0,13.671,0,17.604,0z"/>
	<path fill-rule="evenodd" clip-rule="evenodd" fill="#3E36C4" d="M19.45,8.576c1.038-0.029,1.857,0.838,1.853,1.848
		c-0.007,1.031-0.817,1.895-1.938,1.852c-0.996-0.037-1.792-0.793-1.792-1.863C17.573,9.344,18.432,8.535,19.45,8.576z"/>
</g>
<g>
	<path fill-rule="evenodd" clip-rule="evenodd" fill="#49E6F2" d="M12.481,28.377c3.923,0,7.846,0,11.768,0
		c0.43,0,0.668,0.242,0.668,0.676c0,5.668,0,11.336,0.002,17.004c0,0.309-0.138,0.523-0.398,0.662
		c-0.059,0.031-0.141,0.029-0.211,0.029c-1.646,0.002-3.291,0.002-4.936,0.002c-6.238,0-12.478,0-18.716,0
		C0.296,46.75,0,46.451,0,46.084c-0.001-5.68,0-11.359,0-17.037c0-0.402,0.264-0.67,0.665-0.67
		C4.604,28.377,8.543,28.377,12.481,28.377z M16.679,37.074c0.073,0.1,0.123,0.17,0.178,0.24c1.289,1.666,2.58,3.332,3.867,5
		c0.078,0.104,0.164,0.148,0.295,0.146c0.649-0.006,1.298-0.002,1.947-0.004c0.219,0,0.219,0,0.219-0.227
		c0-3.787,0-7.574-0.002-11.363c0-0.084-0.006-0.168-0.009-0.252c-0.008-0.162-0.088-0.293-0.235-0.336
		c-0.179-0.051-0.369-0.078-0.556-0.078c-6.604-0.004-13.206-0.004-19.808-0.004c-0.102,0-0.201,0.004-0.303,0.01
		c-0.363,0.016-0.53,0.182-0.53,0.545c-0.003,2.545-0.003,5.092-0.001,7.637c0,0.055,0.023,0.105,0.044,0.195
		c1.373-1.836,2.718-3.635,4.074-5.451c0.054,0.059,0.095,0.096,0.128,0.139c0.37,0.463,0.74,0.926,1.108,1.389
		c0.943,1.191,1.886,2.387,2.829,3.576c0.916,1.156,1.835,2.311,2.752,3.469c0.137,0.172,0.138,0.176,0.276,0.002
		c1.058-1.314,2.114-2.631,3.172-3.945C16.302,37.539,16.48,37.318,16.679,37.074z"/>
	<path fill-rule="evenodd" clip-rule="evenodd" fill="#49E6F2" d="M17.604,23.375c3.95,0,7.9,0,11.851,0
		c0.378,0,0.625,0.246,0.625,0.619c0,5.662,0,11.324,0,16.988c0,0.412-0.263,0.678-0.671,0.678
		c-0.968,0.002-1.936-0.002-2.904,0.004c-0.147,0-0.203-0.029-0.199-0.193c0.014-0.459,0.01-0.918,0.001-1.377
		c-0.003-0.139,0.044-0.17,0.172-0.168c0.392,0.006,0.783,0.004,1.175,0.002c0.373-0.002,0.642-0.252,0.678-0.627
		c0.007-0.072,0.007-0.145,0.007-0.217c0.001-4.432,0.001-8.863,0-13.295c0-0.061,0.001-0.123-0.003-0.184
		c-0.019-0.271-0.197-0.455-0.47-0.477c-0.117-0.012-0.235-0.014-0.353-0.014c-6.607,0-13.216,0-19.824,0.004
		c-0.182,0-0.368,0.02-0.543,0.068c-0.229,0.063-0.332,0.221-0.334,0.461c-0.004,0.41-0.007,0.818,0.001,1.227
		c0.003,0.141-0.04,0.182-0.179,0.18c-0.465-0.008-0.93-0.006-1.395,0c-0.131,0.002-0.169-0.039-0.168-0.172
		c0.004-0.975,0.014-1.949-0.005-2.922c-0.005-0.277,0.354-0.576,0.569-0.584c0.057-0.004,0.112-0.002,0.168-0.002
		C9.738,23.375,13.671,23.375,17.604,23.375z"/>
	<path fill-rule="evenodd" clip-rule="evenodd" fill="#49E6F2" d="M19.45,31.951c1.038-0.029,1.857,0.838,1.853,1.848
		c-0.007,1.031-0.817,1.895-1.938,1.852c-0.996-0.037-1.792-0.793-1.792-1.863C17.573,32.719,18.432,31.91,19.45,31.951z"/>
</g>
</svg>
