<?xml version="1.0" encoding="utf-8"?>
<!-- Generator: Adobe Illustrator 16.0.0, SVG Export Plug-In . SVG Version: 6.00 Build 0)  -->
<!DOCTYPE svg PUBLIC "-//W3C//DTD SVG 1.1//EN" "http://www.w3.org/Graphics/SVG/1.1/DTD/svg11.dtd">
<svg version="1.1" id="Layer_1" xmlns="http://www.w3.org/2000/svg" xmlns:xlink="http://www.w3.org/1999/xlink" x="0px" y="0px"
	 width="30.175px" height="46.748px" viewBox="0 0 30.175 46.748" enable-background="new 0 0 30.175 46.748" xml:space="preserve">
<g>
	<g>
		<path fill-rule="evenodd" clip-rule="evenodd" fill="#3E36C4" d="M17.699,0c3.95,0,7.9,0,11.851,0
			c0.378,0,0.625,0.245,0.625,0.618c0,5.662,0,11.325,0,16.988c0,0.412-0.263,0.679-0.671,0.679
			c-0.968,0.001-1.936-0.003-2.904,0.003c-0.147,0.001-0.203-0.029-0.199-0.193c0.014-0.459,0.01-0.918,0.001-1.376
			c-0.003-0.14,0.044-0.171,0.172-0.169c0.392,0.006,0.783,0.004,1.175,0.002c0.373-0.002,0.642-0.251,0.678-0.626
			c0.007-0.072,0.007-0.146,0.007-0.218c0.001-4.432,0.001-8.863,0-13.294c0-0.062,0.001-0.124-0.003-0.185
			c-0.019-0.271-0.197-0.454-0.47-0.477c-0.117-0.011-0.235-0.014-0.353-0.014c-6.607,0-13.216,0-19.824,0.004
			c-0.182,0-0.368,0.021-0.543,0.068C7.011,1.875,6.908,2.032,6.906,2.272c-0.004,0.41-0.007,0.818,0.001,1.227
			C6.91,3.64,6.867,3.682,6.729,3.68c-0.465-0.008-0.93-0.007-1.395,0C5.203,3.681,5.165,3.64,5.166,3.507
			C5.17,2.532,5.18,1.558,5.161,0.585C5.156,0.309,5.516,0.009,5.73,0.001C5.787-0.002,5.843,0,5.898,0C9.833,0,13.766,0,17.699,0z"
			/>
		<path fill-rule="evenodd" clip-rule="evenodd" fill="#3E36C4" d="M25.014,5.704c0-0.373-0.247-0.618-0.625-0.618
			c-3.95,0-7.9,0-11.851,0c-2.986,0-5.973,0-8.959,0L3.575,5.085c-0.323,0.002-0.646,0-0.968,0.001c-0.624,0-1.247,0-1.87,0
			c-0.056,0-0.111-0.002-0.168,0.001C0.528,5.089,0.479,5.108,0.432,5.13c-0.159,0.051-0.277,0.156-0.35,0.302
			c-0.01,0.017-0.021,0.03-0.029,0.046C0.048,5.49,0.046,5.504,0.042,5.517C0.021,5.567-0.001,5.619,0,5.671
			c0.001,0.031-0.001,0.063,0,0.095v0.001c0,5.663,0,11.326,0,16.988c0,0.373,0.247,0.618,0.625,0.618c3.95,0,7.9,0,11.851,0
			c2.986,0,5.973,0,8.959,0l0.004,0.001c0.323-0.002,0.646,0,0.968-0.001c0.624,0,1.247,0,1.87,0c0.056,0,0.111,0.002,0.168-0.001
			c0.041-0.002,0.09-0.021,0.138-0.043c0.159-0.051,0.277-0.156,0.35-0.302c0.01-0.017,0.021-0.03,0.029-0.046
			c0.005-0.013,0.007-0.026,0.011-0.039c0.021-0.051,0.043-0.103,0.042-0.154c-0.001-0.031,0.001-0.063,0-0.095v-0.001
			C25.014,17.029,25.014,11.366,25.014,5.704z M2.567,21.634c-0.117,0-0.235-0.003-0.353-0.014c-0.272-0.022-0.451-0.206-0.47-0.477
			c-0.004-0.061-0.003-0.123-0.003-0.185c-0.001-4.119-0.001-8.239,0-12.358c0-0.008,0.004-0.008,0.004-0.016
			C1.739,8.246,1.743,7.906,1.745,7.566c0.001-0.04,0-0.079,0.004-0.118c0.025-0.265,0.17-0.46,0.381-0.557
			c0.16-0.039,0.327-0.063,0.492-0.063C9.23,6.825,15.839,6.825,22.446,6.825c0.117,0,0.235,0.003,0.353,0.014
			c0.272,0.022,0.451,0.206,0.47,0.477c0.004,0.061,0.003,0.123,0.003,0.185c0.001,4.119,0.001,8.239,0,12.358
			c0,0-0.004,0.008-0.004,0.016c0.007,0.339,0.003,0.679,0.001,1.019c-0.001,0.04,0,0.079-0.004,0.119
			c-0.025,0.264-0.17,0.459-0.381,0.556c-0.16,0.039-0.327,0.063-0.492,0.063C15.783,21.634,9.175,21.634,2.567,21.634z"/>
	</g>
	<path fill-rule="evenodd" clip-rule="evenodd" fill="#3E36C4" d="M18.433,14.181c-0.312-0.001-0.586-0.125-0.854-0.264
		c-0.144-0.076-0.282-0.164-0.429-0.238c-0.033-0.016-0.095-0.021-0.121-0.002c-0.456,0.364-0.585,0.462-1.04,0.83l-1.542,1.197
		c-0.023,0.009-0.047,0.023-0.071,0.044c-0.179,0.155-0.362,0.304-0.546,0.453c-0.071,0.058-0.08,0.118-0.049,0.202
		c0.108,0.286,0.217,0.572,0.313,0.861c0.116,0.348,0.129,0.705,0.067,1.068c-0.026,0.146-0.1,0.25-0.229,0.323
		c-0.321,0.179-0.641,0.127-0.957-0.001c-0.653-0.264-1.197-0.689-1.712-1.152c-0.198-0.18-0.385-0.371-0.582-0.549
		c-0.132-0.121-0.154-0.117-0.298-0.012c-0.855,0.631-2.228,1.661-3.083,2.291c-0.08,0.061-0.168,0.105-0.25,0.162
		c-0.477,0.316-0.902-0.055-0.993-0.418c-0.055-0.216-0.034-0.4,0.161-0.551c0.679-0.515,1.871-1.438,2.545-1.955
		c0.304-0.233,0.613-0.461,0.923-0.695c-0.019-0.035-0.03-0.063-0.048-0.092c-0.166-0.271-0.332-0.545-0.501-0.814l-0.002-0.002
		c-0.44-0.717-0.749-1.801-0.711-2.271l0,0c0.004-0.035,0.008-0.066,0.015-0.1c0.073-0.42,0.341-0.603,0.767-0.545
		c0.45,0.064,0.833,0.283,1.209,0.523c0.147,0.092,0.296,0.191,0.451,0.272c0.041,0.022,0.129,0.015,0.167-0.015
		c1.188-0.934,2.047-1.6,3.23-2.537c0.009-0.008,0.019-0.018,0.003-0.002c-0.083-0.334-0.172-0.648-0.233-0.968
		c-0.028-0.147-0.02-0.31,0.008-0.457c0.045-0.261,0.224-0.401,0.482-0.425c0.033-0.004,0.064-0.01,0.098-0.016
		c0.119,0.024,0.236,0.047,0.354,0.07c0.52,0.213,0.979,0.518,1.395,0.889c1.045,0.932,1.886,2.013,2.418,3.317
		c0.115,0.278,0.197,0.569,0.197,0.875c-0.002,0.114-0.016,0.231-0.047,0.343C18.873,14.058,18.691,14.18,18.433,14.181z"/>
</g>
<g>
	<g>
		<path fill-rule="evenodd" clip-rule="evenodd" fill="#49E6F2" d="M17.699,23.374c3.95,0,7.9,0,11.851,0
			c0.378,0,0.625,0.245,0.625,0.618c0,5.662,0,11.325,0,16.988c0,0.412-0.263,0.679-0.671,0.679
			c-0.968,0.001-1.936-0.003-2.904,0.003c-0.147,0.001-0.203-0.029-0.199-0.193c0.014-0.459,0.01-0.918,0.001-1.376
			c-0.003-0.14,0.044-0.171,0.172-0.169c0.392,0.006,0.783,0.004,1.175,0.002c0.373-0.002,0.642-0.251,0.678-0.626
			c0.007-0.072,0.007-0.146,0.007-0.218c0.001-4.432,0.001-8.863,0-13.294c0-0.062,0.001-0.124-0.003-0.185
			c-0.019-0.271-0.197-0.454-0.47-0.477c-0.117-0.011-0.235-0.014-0.353-0.014c-6.607,0-13.216,0-19.824,0.004
			c-0.182,0-0.368,0.021-0.543,0.068c-0.229,0.063-0.332,0.221-0.334,0.461c-0.004,0.41-0.007,0.818,0.001,1.227
			c0.003,0.141-0.04,0.183-0.179,0.181c-0.465-0.008-0.93-0.007-1.395,0c-0.131,0.001-0.169-0.04-0.168-0.173
			c0.004-0.975,0.014-1.949-0.005-2.922c-0.005-0.276,0.354-0.576,0.569-0.584c0.057-0.003,0.112-0.001,0.168-0.001
			C9.833,23.374,13.766,23.374,17.699,23.374z"/>
		<path fill-rule="evenodd" clip-rule="evenodd" fill="#49E6F2" d="M25.014,29.078c0-0.373-0.247-0.618-0.625-0.618
			c-3.95,0-7.9,0-11.851,0c-2.986,0-5.973,0-8.959,0l-0.004-0.001c-0.323,0.002-0.646,0-0.968,0.001c-0.624,0-1.247,0-1.87,0
			c-0.056,0-0.111-0.002-0.168,0.001c-0.041,0.002-0.09,0.021-0.138,0.043c-0.159,0.051-0.277,0.156-0.35,0.302
			c-0.01,0.017-0.021,0.03-0.029,0.046c-0.005,0.013-0.007,0.026-0.011,0.039C0.021,28.941-0.001,28.993,0,29.045
			c0.001,0.031-0.001,0.063,0,0.095v0.001c0,5.663,0,11.326,0,16.988c0,0.373,0.247,0.618,0.625,0.618c3.95,0,7.9,0,11.851,0
			c2.986,0,5.973,0,8.959,0l0.004,0.001c0.323-0.002,0.646,0,0.968-0.001c0.624,0,1.247,0,1.87,0c0.056,0,0.111,0.002,0.168-0.001
			c0.041-0.002,0.09-0.021,0.138-0.043c0.159-0.051,0.277-0.156,0.35-0.302c0.01-0.017,0.021-0.03,0.029-0.046
			c0.005-0.013,0.007-0.026,0.011-0.039c0.021-0.051,0.043-0.103,0.042-0.154c-0.001-0.031,0.001-0.063,0-0.095v-0.001
			C25.014,40.403,25.014,34.74,25.014,29.078z M2.567,45.008c-0.117,0-0.235-0.003-0.353-0.014c-0.272-0.022-0.451-0.206-0.47-0.477
			c-0.004-0.061-0.003-0.123-0.003-0.185c-0.001-4.119-0.001-8.239,0-12.358c0-0.008,0.004-0.008,0.004-0.016
			C1.739,31.62,1.743,31.28,1.745,30.94c0.001-0.04,0-0.079,0.004-0.118c0.025-0.265,0.17-0.46,0.381-0.557
			c0.16-0.039,0.327-0.063,0.492-0.063c6.608-0.004,13.217-0.004,19.824-0.004c0.117,0,0.235,0.003,0.353,0.014
			c0.272,0.022,0.451,0.206,0.47,0.477c0.004,0.061,0.003,0.123,0.003,0.185c0.001,4.119,0.001,8.239,0,12.358
			c0,0-0.004,0.008-0.004,0.016c0.007,0.339,0.003,0.679,0.001,1.019c-0.001,0.04,0,0.079-0.004,0.119
			c-0.025,0.264-0.17,0.459-0.381,0.556c-0.16,0.039-0.327,0.063-0.492,0.063C15.783,45.008,9.175,45.008,2.567,45.008z"/>
	</g>
	<path fill-rule="evenodd" clip-rule="evenodd" fill="#49E6F2" d="M18.433,37.555c-0.312-0.001-0.586-0.125-0.854-0.264
		c-0.144-0.076-0.282-0.164-0.429-0.238c-0.033-0.016-0.095-0.021-0.121-0.002c-0.456,0.364-0.585,0.462-1.04,0.83l-1.542,1.197
		c-0.023,0.009-0.047,0.023-0.071,0.044c-0.179,0.155-0.362,0.304-0.546,0.453c-0.071,0.058-0.08,0.118-0.049,0.202
		c0.108,0.286,0.217,0.572,0.313,0.861c0.116,0.348,0.129,0.705,0.067,1.068c-0.026,0.146-0.1,0.25-0.229,0.323
		c-0.321,0.179-0.641,0.127-0.957-0.001c-0.653-0.264-1.197-0.689-1.712-1.152c-0.198-0.18-0.385-0.371-0.582-0.549
		c-0.132-0.121-0.154-0.117-0.298-0.012c-0.855,0.631-2.228,1.661-3.083,2.291c-0.08,0.061-0.168,0.105-0.25,0.162
		c-0.477,0.316-0.902-0.055-0.993-0.418c-0.055-0.216-0.034-0.4,0.161-0.551c0.679-0.515,1.871-1.438,2.545-1.955
		c0.304-0.233,0.613-0.461,0.923-0.695c-0.019-0.035-0.03-0.063-0.048-0.092c-0.166-0.271-0.332-0.545-0.501-0.814l-0.002-0.002
		c-0.44-0.717-0.749-1.801-0.711-2.271l0,0c0.004-0.035,0.008-0.066,0.015-0.1c0.073-0.42,0.341-0.603,0.767-0.545
		c0.45,0.064,0.833,0.283,1.209,0.523c0.147,0.092,0.296,0.191,0.451,0.272c0.041,0.022,0.129,0.015,0.167-0.015
		c1.188-0.934,2.047-1.6,3.23-2.537c0.009-0.008,0.019-0.018,0.003-0.002c-0.083-0.334-0.172-0.648-0.233-0.968
		c-0.028-0.147-0.02-0.31,0.008-0.457c0.045-0.261,0.224-0.401,0.482-0.425c0.033-0.004,0.064-0.01,0.098-0.016
		c0.119,0.024,0.236,0.047,0.354,0.07c0.52,0.213,0.979,0.518,1.395,0.889c1.045,0.932,1.886,2.013,2.418,3.317
		c0.115,0.278,0.197,0.569,0.197,0.875c-0.002,0.114-0.016,0.231-0.047,0.343C18.873,37.432,18.691,37.554,18.433,37.555z"/>
</g>
</svg>
