<?xml version="1.0" encoding="utf-8"?>
<!-- Generator: Adobe Illustrator 16.0.0, SVG Export Plug-In . SVG Version: 6.00 Build 0)  -->
<!DOCTYPE svg PUBLIC "-//W3C//DTD SVG 1.1//EN" "http://www.w3.org/Graphics/SVG/1.1/DTD/svg11.dtd">
<svg version="1.1" id="Layer_1" xmlns="http://www.w3.org/2000/svg" xmlns:xlink="http://www.w3.org/1999/xlink" x="0px" y="0px"
	 width="23.395px" height="46.705px" viewBox="0 0 23.395 46.705" enable-background="new 0 0 23.395 46.705" xml:space="preserve">
<g>
	<path fill-rule="evenodd" clip-rule="evenodd" fill="#49E6F2" d="M0,27.623c0.027-0.073,0.047-0.149,0.08-0.219
		c0.156-0.316,0.414-0.485,0.768-0.486c1.438-0.002,2.877,0,4.314,0c1.572,0,3.145,0,4.717,0c0.455,0,0.807,0.316,0.85,0.766
		c0.041,0.422-0.254,0.807-0.688,0.889c-0.076,0.016-0.154,0.014-0.232,0.014c-2.648,0-5.295,0-7.941,0c-0.059,0-0.119,0-0.188,0
		c0,5.487,0,10.959,0,16.442c5.479,0,10.951,0,16.439,0c0-0.158,0-0.309,0-0.459c0-2.568,0-5.139,0-7.707
		c0-0.629,0.557-1.039,1.131-0.832c0.32,0.115,0.537,0.42,0.537,0.771c0.004,1.08,0.002,2.158,0.002,3.236
		c0,1.928,0,3.855,0.002,5.783c0,0.271-0.086,0.502-0.291,0.682c-0.143,0.123-0.309,0.189-0.496,0.199
		c-0.053,0.004-0.104,0.004-0.156,0.004c-5.971,0-11.939,0-17.908,0c-0.51,0-0.777-0.201-0.926-0.684
		C0.012,46.014,0.006,46.006,0,45.998C0,39.873,0,33.748,0,27.623z"/>
	<path fill-rule="evenodd" clip-rule="evenodd" fill="#49E6F2" d="M23.395,26.946c-0.072,0.265-0.254,0.452-0.443,0.64
		c-3.74,3.739-7.479,7.479-11.223,11.217c-0.105,0.107-0.244,0.195-0.385,0.256c-1.469,0.635-2.943,1.264-4.416,1.893
		c-0.371,0.158-0.725,0.098-0.984-0.166c-0.248-0.252-0.301-0.596-0.146-0.963c0.637-1.484,1.27-2.97,1.91-4.453
		c0.053-0.123,0.135-0.244,0.23-0.34c2.504-2.508,5.008-5.013,7.514-7.519c1.283-1.283,2.566-2.566,3.85-3.852
		c0.41-0.41,0.895-0.412,1.303-0.004c0.832,0.834,1.67,1.661,2.496,2.502c0.127,0.13,0.197,0.316,0.295,0.477
		C23.395,26.738,23.395,26.842,23.395,26.946z M17.678,27.673c-2.725,2.725-5.453,5.452-8.17,8.169
		c0.465,0.465,0.934,0.935,1.396,1.396c2.721-2.719,5.449-5.447,8.168-8.167C18.611,28.609,18.145,28.14,17.678,27.673z
		 M18.494,26.848c0.471,0.474,0.938,0.942,1.381,1.388c0.486-0.482,0.98-0.971,1.447-1.435c-0.457-0.462-0.92-0.931-1.383-1.396
		C19.461,25.883,18.975,26.369,18.494,26.848z M9.869,37.869c-0.334-0.332-0.662-0.66-0.99-0.989
		c-0.24,0.557-0.486,1.129-0.744,1.735C8.742,38.354,9.313,38.109,9.869,37.869z"/>
</g>
<g>
	<path fill-rule="evenodd" clip-rule="evenodd" fill="#3E36C4" d="M0,4.272c0.027-0.073,0.047-0.149,0.08-0.219
		c0.156-0.316,0.414-0.485,0.768-0.486c1.438-0.002,2.877,0,4.314,0c1.572,0,3.145,0,4.717,0c0.455,0,0.807,0.316,0.85,0.766
		c0.041,0.422-0.254,0.807-0.688,0.889C9.965,5.237,9.887,5.235,9.809,5.235c-2.648,0-5.295,0-7.941,0c-0.059,0-0.119,0-0.188,0
		c0,5.487,0,10.96,0,16.442c5.479,0,10.951,0,16.439,0c0-0.158,0-0.309,0-0.459c0-2.568,0-5.139,0-7.707
		c0-0.629,0.557-1.039,1.131-0.832c0.32,0.115,0.537,0.42,0.537,0.771c0.004,1.079,0.002,2.157,0.002,3.236
		c0,1.928,0,3.855,0.002,5.783c0,0.271-0.086,0.502-0.291,0.681c-0.143,0.124-0.309,0.19-0.496,0.2
		c-0.053,0.003-0.104,0.003-0.156,0.003c-5.971,0-11.939,0-17.908,0c-0.51,0-0.777-0.2-0.926-0.684
		C0.012,22.663,0.006,22.656,0,22.648C0,16.523,0,10.397,0,4.272z"/>
	<path fill-rule="evenodd" clip-rule="evenodd" fill="#3E36C4" d="M23.395,3.595c-0.072,0.265-0.254,0.452-0.443,0.64
		c-3.74,3.739-7.479,7.479-11.223,11.218c-0.105,0.106-0.244,0.195-0.385,0.255c-1.469,0.636-2.943,1.265-4.416,1.894
		c-0.371,0.158-0.725,0.098-0.984-0.166c-0.248-0.253-0.301-0.596-0.146-0.963c0.637-1.484,1.27-2.971,1.91-4.453
		c0.053-0.123,0.135-0.244,0.23-0.34c2.504-2.508,5.008-5.013,7.514-7.519c1.283-1.283,2.566-2.566,3.85-3.852
		c0.41-0.41,0.895-0.412,1.303-0.004c0.832,0.834,1.67,1.661,2.496,2.502c0.127,0.13,0.197,0.316,0.295,0.477
		C23.395,3.387,23.395,3.492,23.395,3.595z M17.678,4.323c-2.725,2.725-5.453,5.452-8.17,8.169c0.465,0.465,0.934,0.935,1.396,1.396
		c2.721-2.72,5.449-5.447,8.168-8.167C18.611,5.258,18.145,4.79,17.678,4.323z M18.494,3.498c0.471,0.474,0.938,0.942,1.381,1.388
		c0.486-0.482,0.98-0.971,1.447-1.435c-0.457-0.462-0.92-0.931-1.383-1.396C19.461,2.533,18.975,3.018,18.494,3.498z M9.869,14.519
		c-0.334-0.332-0.662-0.66-0.99-0.989c-0.24,0.558-0.486,1.13-0.744,1.735C8.742,15.003,9.313,14.759,9.869,14.519z"/>
</g>
</svg>
