<?xml version="1.0" encoding="utf-8"?>
<!-- Generator: Adobe Illustrator 16.0.0, SVG Export Plug-In . SVG Version: 6.00 Build 0)  -->
<!DOCTYPE svg PUBLIC "-//W3C//DTD SVG 1.1//EN" "http://www.w3.org/Graphics/SVG/1.1/DTD/svg11.dtd">
<svg version="1.1" id="Layer_1" xmlns="http://www.w3.org/2000/svg" xmlns:xlink="http://www.w3.org/1999/xlink" x="0px" y="0px"
	 width="22.852px" height="45.702px" viewBox="0 0 22.852 45.702" enable-background="new 0 0 22.852 45.702" xml:space="preserve">
<g>
	<path fill="#49E6F2" d="M1.807,35.312c-0.242-2.66,0.449-5.028,2.055-7.041c1.641-2.058,3.793-3.265,6.396-3.589
		c2.227-0.275,4.338,0.195,6.268,1.395c0.992,0.617,1.832,1.383,2.564,2.338h-3.336v1.752h6.26v-6.268H20.27v3.172
		c-1.084-1.326-2.406-2.369-3.938-3.105c-1.174-0.564-2.418-0.918-3.699-1.047c-0.164-0.018-0.326-0.031-0.49-0.047l-0.232-0.021
		l-1.004,0.001l-0.221,0.02c-0.158,0.015-0.318,0.029-0.479,0.047c-1.514,0.158-2.936,0.602-4.227,1.318
		c-2.596,1.441-4.406,3.592-5.383,6.394c-0.326,0.938-0.521,1.946-0.578,2.996c-0.002,0.027-0.006,0.054-0.01,0.08L0,33.769
		l0.002,0.98l0.066,0.698H1.82L1.807,35.312z"/>
	<path fill="#49E6F2" d="M22.85,33.997l-0.055-0.26h-1.709l0.004,0.129c0.072,2.382-0.613,4.515-2.037,6.339
		c-1.449,1.857-3.344,3.045-5.635,3.529c-0.662,0.141-1.338,0.213-2.006,0.213c-2.787,0-5.547-1.281-7.271-3.357h3.234v-1.746h-6.26
		v6.262h1.752v-3.297c1.197,1.359,2.648,2.393,4.313,3.066c0.979,0.398,2.004,0.654,3.051,0.76c0.158,0.016,0.314,0.029,0.471,0.045
		l0.24,0.021h0.998l0.188-0.018c0.172-0.016,0.344-0.031,0.518-0.049c1.996-0.215,3.82-0.912,5.426-2.074
		c2.221-1.609,3.707-3.768,4.416-6.42c0.188-0.709,0.305-1.455,0.346-2.217c0-0.026,0.006-0.052,0.01-0.078l0.01-0.062L22.85,33.997
		z"/>
</g>
<g>
	<path fill="#3E36C4" d="M1.807,12.461C1.564,9.801,2.256,7.433,3.861,5.42c1.641-2.058,3.793-3.265,6.396-3.589
		c2.227-0.275,4.338,0.195,6.268,1.395c0.992,0.617,1.832,1.383,2.564,2.338h-3.336v1.752h6.26V1.048H20.27V4.22
		c-1.084-1.326-2.406-2.369-3.938-3.105c-1.174-0.564-2.418-0.918-3.699-1.047c-0.164-0.018-0.326-0.031-0.49-0.047L11.91,0
		l-1.004,0.001l-0.221,0.02c-0.158,0.015-0.318,0.029-0.479,0.047C8.693,0.226,7.271,0.669,5.98,1.386
		C3.385,2.827,1.574,4.978,0.598,7.779C0.271,8.717,0.076,9.726,0.02,10.775c-0.002,0.027-0.006,0.054-0.01,0.08L0,10.918
		l0.002,0.98l0.066,0.698H1.82L1.807,12.461z"/>
	<path fill="#3E36C4" d="M22.85,11.146l-0.055-0.26h-1.709l0.004,0.129c0.072,2.382-0.613,4.515-2.037,6.34
		c-1.449,1.857-3.344,3.045-5.635,3.529c-0.662,0.141-1.338,0.212-2.006,0.212c-2.787,0-5.547-1.28-7.271-3.356h3.234v-1.747h-6.26
		v6.263h1.752v-3.297c1.197,1.359,2.648,2.392,4.313,3.066c0.979,0.398,2.004,0.654,3.051,0.76c0.158,0.016,0.314,0.029,0.471,0.044
		l0.24,0.021h0.998l0.188-0.017c0.172-0.016,0.344-0.031,0.518-0.05c1.996-0.214,3.82-0.911,5.426-2.074
		c2.221-1.608,3.707-3.768,4.416-6.419c0.188-0.709,0.305-1.455,0.346-2.218c0-0.026,0.006-0.052,0.01-0.078l0.01-0.062
		L22.85,11.146z"/>
</g>
</svg>
