<?xml version="1.0" encoding="utf-8"?>
<!-- Generator: Adobe Illustrator 16.0.0, SVG Export Plug-In . SVG Version: 6.00 Build 0)  -->
<!DOCTYPE svg PUBLIC "-//W3C//DTD SVG 1.1//EN" "http://www.w3.org/Graphics/SVG/1.1/DTD/svg11.dtd">
<svg version="1.1" id="Layer_1" xmlns="http://www.w3.org/2000/svg" xmlns:xlink="http://www.w3.org/1999/xlink" x="0px" y="0px"
	 width="44.278px" height="88.557px" viewBox="0 0 44.278 88.557" enable-background="new 0 0 44.278 88.557" xml:space="preserve">
<linearGradient id="SVGID_1_" gradientUnits="userSpaceOnUse" x1="22.1396" y1="-0.5498" x2="22.1396" y2="44.9923">
	<stop  offset="0" style="stop-color:#1CB6EA"/>
	<stop  offset="1" style="stop-color:#3E23CA"/>
</linearGradient>
<circle fill-rule="evenodd" clip-rule="evenodd" fill="url(#SVGID_1_)" cx="22.139" cy="22.139" r="22.139"/>
<path fill-rule="evenodd" clip-rule="evenodd" fill="#49E6F2" d="M32.604,22.654c0.245-0.281,0.384-0.594,0.444-0.975
	c0.134-0.863-0.405-1.686-1.175-1.998c-0.462-0.189-0.927-0.369-1.39-0.551c-0.434-0.17-0.869-0.34-1.304-0.51l0.002-0.002
	l-4.171-1.662c-0.02-0.01-0.029-0.021-0.048-0.029c-1.186-0.459-6.923-2.721-8.104-3.188c-0.349-0.135-0.689-0.293-1.069-0.336
	c-0.713-0.082-1.458,0.313-1.776,0.949c-0.291,0.58-0.263,1.156,0.016,1.723c0.397,0.809,0.809,1.609,1.215,2.414
	c0.666,1.326,1.332,2.652,2.001,3.975c0.04,0.082,0.049,0.152,0.021,0.24c-0.187,0.576-0.365,1.154-0.545,1.732
	c-0.4,1.287-0.802,2.574-1.201,3.861c-0.149,0.484-0.313,0.965-0.426,1.461c-0.15,0.668,0.025,1.275,0.543,1.727
	c0.586,0.514,1.273,0.609,1.975,0.279c0.457-0.215,0.879-0.502,1.314-0.762c1.47-0.879,2.938-1.764,4.404-2.646
	c1.396-0.842,2.791-1.688,4.187-2.529c0.807-0.482,1.612-0.963,2.419-1.447c0.68-0.41,1.363-0.814,2.037-1.232
	c0.229-0.141,0.437-0.311,0.653-0.465C32.617,22.674,32.609,22.666,32.604,22.654z M31.123,21.66
	c-1.035,0.625-2.07,1.25-3.103,1.877c-1.884,1.143-3.767,2.291-5.652,3.434c-1.721,1.047-3.441,2.088-5.162,3.135
	c-0.109,0.064-0.219,0.102-0.328,0.014s-0.11-0.205-0.066-0.332c0.166-0.488,0.326-0.98,0.488-1.471
	c0.502-1.527,1.01-3.051,1.504-4.58c0.086-0.264,0.245-0.408,0.508-0.463c0.249-0.053,0.498-0.113,0.745-0.174
	c1.131-0.264,2.262-0.529,3.392-0.797c0.12-0.029,0.199-0.096,0.188-0.227c-0.012-0.125-0.098-0.176-0.213-0.186
	c-0.126-0.01-0.252-0.02-0.378-0.027c-1.318-0.094-2.639-0.188-3.958-0.275c-0.24-0.018-0.4-0.125-0.511-0.338
	c-0.634-1.215-1.271-2.428-1.907-3.643c-0.357-0.686-0.718-1.373-1.077-2.057c-0.065-0.123-0.114-0.246-0.003-0.365
	c0.111-0.121,0.241-0.072,0.365-0.021c0.824,0.322,6.209,2.434,7.035,2.758c0.202,0.078,0.403,0.156,0.604,0.234l-0.001,0.004
	l4.076,1.658c0.017,0.008,0.031,0.016,0.049,0.021c0.072,0.029,0.146,0.059,0.217,0.088l0.104,0.041h0.001
	c1.013,0.406,2.028,0.809,3.046,1.211c0.104,0.043,0.194,0.1,0.204,0.227C31.297,21.535,31.22,21.602,31.123,21.66z"/>
<linearGradient id="SVGID_2_" gradientUnits="userSpaceOnUse" x1="22.1396" y1="43.7295" x2="22.1396" y2="89.2716" gradientTransform="matrix(1 0 0 -1 0 132.8379)">
	<stop  offset="0" style="stop-color:#1CB6EA"/>
	<stop  offset="1" style="stop-color:#3E23CA"/>
</linearGradient>
<circle fill-rule="evenodd" clip-rule="evenodd" fill="url(#SVGID_2_)" cx="22.139" cy="66.42" r="22.139"/>
<path fill-rule="evenodd" clip-rule="evenodd" fill="#FFFFFF" d="M32.604,66.934c0.245-0.281,0.384-0.594,0.444-0.975
	c0.134-0.863-0.405-1.686-1.175-1.998c-0.462-0.189-0.927-0.369-1.39-0.551c-0.434-0.17-0.869-0.34-1.304-0.51l0.002-0.002
	l-4.171-1.662c-0.02-0.01-0.029-0.021-0.048-0.029c-1.186-0.459-6.923-2.721-8.104-3.188c-0.349-0.135-0.689-0.293-1.069-0.336
	c-0.713-0.082-1.458,0.313-1.776,0.949c-0.291,0.58-0.263,1.156,0.016,1.723c0.397,0.809,0.809,1.609,1.215,2.414
	c0.666,1.326,1.332,2.652,2.001,3.975c0.04,0.082,0.049,0.152,0.021,0.24c-0.187,0.576-0.365,1.154-0.545,1.732
	c-0.4,1.287-0.802,2.574-1.201,3.861c-0.149,0.484-0.313,0.965-0.426,1.461c-0.15,0.668,0.025,1.275,0.543,1.727
	c0.586,0.514,1.273,0.609,1.975,0.279c0.457-0.215,0.879-0.502,1.314-0.762c1.47-0.879,2.938-1.764,4.404-2.646
	c1.396-0.842,2.791-1.688,4.187-2.529c0.807-0.482,1.612-0.963,2.419-1.447c0.68-0.41,1.363-0.814,2.037-1.232
	c0.229-0.141,0.437-0.311,0.653-0.465C32.617,66.953,32.609,66.945,32.604,66.934z M31.123,65.939
	c-1.035,0.625-2.07,1.25-3.103,1.877c-1.884,1.143-3.767,2.291-5.652,3.434c-1.721,1.047-3.441,2.088-5.162,3.135
	c-0.109,0.064-0.219,0.102-0.328,0.014s-0.11-0.205-0.066-0.332c0.166-0.488,0.326-0.98,0.488-1.471
	c0.502-1.527,1.01-3.051,1.504-4.58c0.086-0.264,0.245-0.408,0.508-0.463c0.249-0.053,0.498-0.113,0.745-0.174
	c1.131-0.264,2.262-0.529,3.392-0.797c0.12-0.029,0.199-0.096,0.188-0.227c-0.012-0.125-0.098-0.176-0.213-0.186
	c-0.126-0.01-0.252-0.02-0.378-0.027c-1.318-0.094-2.639-0.188-3.958-0.275c-0.24-0.018-0.4-0.125-0.511-0.338
	c-0.634-1.215-1.271-2.428-1.907-3.643c-0.357-0.686-0.718-1.373-1.077-2.057c-0.065-0.123-0.114-0.246-0.003-0.365
	c0.111-0.121,0.241-0.072,0.365-0.021c0.824,0.322,6.209,2.434,7.035,2.758c0.202,0.078,0.403,0.156,0.604,0.234l-0.001,0.004
	l4.076,1.658c0.017,0.008,0.031,0.016,0.049,0.021c0.072,0.029,0.146,0.059,0.217,0.088l0.104,0.041h0.001
	c1.013,0.406,2.028,0.809,3.046,1.211c0.104,0.043,0.194,0.1,0.204,0.227C31.297,65.814,31.22,65.881,31.123,65.939z"/>
</svg>
