<?xml version="1.0" encoding="utf-8"?>
<!-- Generator: Adobe Illustrator 16.0.0, SVG Export Plug-In . SVG Version: 6.00 Build 0)  -->
<!DOCTYPE svg PUBLIC "-//W3C//DTD SVG 1.1//EN" "http://www.w3.org/Graphics/SVG/1.1/DTD/svg11.dtd">
<svg version="1.1" id="Layer_1" xmlns="http://www.w3.org/2000/svg" xmlns:xlink="http://www.w3.org/1999/xlink" x="0px" y="0px"
	 width="25px" height="49.938px" viewBox="0 0 25 49.938" enable-background="new 0 0 25 49.938" xml:space="preserve">
<g>
	<path fill-rule="evenodd" clip-rule="evenodd" fill="#3E36C4" d="M12.573,0h-0.086c-3.381,0.025-6.543,1.355-8.91,3.748
		C1.245,6.117-0.024,9.254,0,12.586C0.049,19.385,5.615,24.951,12.415,25h0.072c3.357,0,6.494-1.318,8.875-3.699
		c2.368-2.381,3.662-5.543,3.638-8.91C24.951,5.566,19.372,0,12.573,0z M12.5,23.412h-0.062c-5.957,0-10.827-4.871-10.863-10.85
		C1.55,6.434,6.348,1.611,12.5,1.588h0.062c5.957,0,10.827,4.846,10.852,10.803C23.425,18.541,18.64,23.389,12.5,23.412z"/>
	<path fill-rule="evenodd" clip-rule="evenodd" fill="#3E36C4" d="M18.018,16.295c0-0.012,0.013-0.023,0.013-0.035
		c-0.501-0.195-0.977-0.379-1.478-0.574c-0.036,0.061-0.073,0.135-0.122,0.195c-0.635,0.891-1.514,1.465-2.637,1.684
		c-1.123,0.221-2.197,0.172-3.186-0.146c-0.977-0.305-1.709-0.891-2.161-1.709l-1.501,0.525c0.036,0.074,0.061,0.146,0.098,0.221
		c0.635,1.146,1.599,1.953,2.881,2.393c1.928,0.658,3.809,0.598,5.578-0.195C16.602,18.164,17.444,17.369,18.018,16.295z"/>
	<path fill-rule="evenodd" clip-rule="evenodd" fill="#3E36C4" d="M8.728,10.742c0.306-0.305,0.477-0.707,0.465-1.123
		c0-0.902-0.696-1.586-1.611-1.586c-0.403,0-0.781,0.158-1.074,0.463C6.201,8.789,6.03,9.205,6.03,9.619
		c0,0.867,0.721,1.588,1.6,1.588v0.365l0,0v-0.365C8.044,11.207,8.435,11.035,8.728,10.742z"/>
	<path fill-rule="evenodd" clip-rule="evenodd" fill="#3E36C4" d="M17.37,8.033c-0.854,0-1.574,0.721-1.586,1.574
		c0,0.416,0.17,0.818,0.476,1.123c0.293,0.305,0.696,0.477,1.11,0.477c0.855,0,1.588-0.721,1.588-1.574
		C18.958,8.74,18.262,8.033,17.37,8.033z"/>
</g>
<g>
	<path fill-rule="evenodd" clip-rule="evenodd" fill="#49E6F2" d="M12.573,24.991h-0.086c-3.381,0.025-6.543,1.355-8.91,3.748
		C1.245,31.108-0.024,34.245,0,37.577c0.049,6.799,5.615,12.365,12.415,12.414h0.072c3.357,0,6.494-1.318,8.875-3.699
		c2.368-2.381,3.662-5.543,3.638-8.91C24.951,30.558,19.372,24.991,12.573,24.991z M12.5,48.403h-0.062
		c-5.957,0-10.827-4.871-10.863-10.85C1.55,31.425,6.348,26.603,12.5,26.579h0.062c5.957,0,10.827,4.846,10.852,10.803
		C23.425,43.532,18.64,48.38,12.5,48.403z"/>
	<path fill-rule="evenodd" clip-rule="evenodd" fill="#49E6F2" d="M18.018,41.286c0-0.012,0.013-0.023,0.013-0.035
		c-0.501-0.195-0.977-0.379-1.478-0.574c-0.036,0.061-0.073,0.135-0.122,0.195c-0.635,0.891-1.514,1.465-2.637,1.684
		c-1.123,0.221-2.197,0.172-3.186-0.146c-0.977-0.305-1.709-0.891-2.161-1.709l-1.501,0.525c0.036,0.074,0.061,0.146,0.098,0.221
		c0.635,1.146,1.599,1.953,2.881,2.393c1.928,0.658,3.809,0.598,5.578-0.195C16.602,43.155,17.444,42.36,18.018,41.286z"/>
	<path fill-rule="evenodd" clip-rule="evenodd" fill="#49E6F2" d="M8.728,35.733c0.306-0.305,0.477-0.707,0.465-1.123
		c0-0.902-0.696-1.586-1.611-1.586c-0.403,0-0.781,0.158-1.074,0.463C6.201,33.78,6.03,34.196,6.03,34.61
		c0,0.867,0.721,1.588,1.6,1.588v0.365l0,0v-0.365C8.044,36.198,8.435,36.026,8.728,35.733z"/>
	<path fill-rule="evenodd" clip-rule="evenodd" fill="#49E6F2" d="M17.37,33.024c-0.854,0-1.574,0.721-1.586,1.574
		c0,0.416,0.17,0.818,0.476,1.123c0.293,0.305,0.696,0.477,1.11,0.477c0.855,0,1.588-0.721,1.588-1.574
		C18.958,33.731,18.262,33.024,17.37,33.024z"/>
</g>
</svg>
