<?xml version="1.0" encoding="utf-8"?>
<!-- Generator: Adobe Illustrator 16.0.0, SVG Export Plug-In . SVG Version: 6.00 Build 0)  -->
<!DOCTYPE svg PUBLIC "-//W3C//DTD SVG 1.1//EN" "http://www.w3.org/Graphics/SVG/1.1/DTD/svg11.dtd">
<svg version="1.1" id="Layer_1" xmlns="http://www.w3.org/2000/svg" xmlns:xlink="http://www.w3.org/1999/xlink" x="0px" y="0px"
	 width="21.316px" height="42.303px" viewBox="0 -21.143 21.316 42.303" enable-background="new 0 -21.143 21.316 42.303"
	 xml:space="preserve">
<g>
	<path fill="#FFFFFF" d="M0,9.999c0.054-0.392,0.094-0.783,0.162-1.17C0.583,6.455,1.688,4.448,3.454,2.81
		C5.005,1.371,6.84,0.486,8.926,0.148c2.676-0.434,5.169,0.085,7.465,1.528c0.064,0.041,0.128,0.081,0.202,0.129
		c0.204-0.292,0.399-0.577,0.598-0.861c0.048-0.068,0.097-0.138,0.155-0.197c0.139-0.133,0.281-0.109,0.368,0.065
		c0.042,0.084,0.068,0.182,0.095,0.274c0.234,0.841,0.466,1.683,0.699,2.522c0.134,0.486-0.041,0.726-0.536,0.769
		c-0.878,0.073-1.754,0.162-2.633,0.23c-0.146,0.011-0.353-0.005-0.435-0.096c-0.137-0.148,0.032-0.303,0.121-0.438
		c0.188-0.284,0.387-0.562,0.612-0.889c-0.517-0.261-1.007-0.552-1.525-0.769C9.119,0.336,3.485,3.081,2.035,8.294
		c-1.361,4.897,1.713,9.995,6.695,11.1c0.121,0.025,0.244,0.044,0.367,0.07c0.473,0.119,0.758,0.552,0.664,1
		c-0.103,0.482-0.536,0.77-1.03,0.678C7.018,20.82,5.467,20.13,4.1,19.05c-2.266-1.791-3.586-4.131-4.002-6.981
		c-0.039-0.26-0.064-0.521-0.097-0.78C0,10.858,0,10.43,0,9.999z"/>
	<path fill="#FFFFFF" d="M21.317,11.04c-0.126,0.354-0.334,0.617-0.73,0.68c-0.487,0.08-0.955-0.291-0.979-0.785
		c-0.012-0.214-0.009-0.43-0.007-0.643c0.004-0.445,0.29-0.785,0.723-0.861c0.398-0.069,0.798,0.177,0.943,0.582
		c0.015,0.037,0.033,0.073,0.05,0.11C21.317,10.43,21.317,10.733,21.317,11.04z"/>
	<path fill="#FFFFFF" d="M9.443,8.024C9.444,6.92,9.44,5.817,9.444,4.716c0-0.382,0.226-0.667,0.557-0.721
		c0.444-0.074,0.818,0.229,0.823,0.685c0.005,0.708,0.001,1.416,0.001,2.123c0,1.242,0.003,2.481-0.004,3.724
		c-0.002,0.152,0.041,0.23,0.18,0.303c1.768,0.907,2.028,1.009,3.794,1.923c0.342,0.178,0.504,0.438,0.467,0.735
		c-0.067,0.503-0.569,0.765-1.033,0.528c-0.742-0.375-1.479-0.76-2.218-1.143c-1.296-0.672-1.09-0.533-2.391-1.198
		c-0.14-0.072-0.183-0.15-0.183-0.302C9.446,10.257,9.443,9.141,9.443,8.024z"/>
	<path fill="#FFFFFF" d="M12.908,19.315c0.523-0.001,0.883,0.295,0.952,0.694c0.074,0.425-0.162,0.845-0.57,0.967
		c-0.25,0.076-0.513,0.133-0.771,0.17c-0.413,0.055-0.799-0.223-0.909-0.631c-0.107-0.408,0.085-0.852,0.479-0.994
		C12.383,19.414,12.703,19.367,12.908,19.315z"/>
	<path fill="#FFFFFF" d="M19.826,6.165c0.28,0.014,0.553,0.169,0.701,0.495c0.103,0.226,0.187,0.463,0.256,0.7
		c0.126,0.436-0.115,0.881-0.542,1.03c-0.42,0.146-0.875-0.048-1.056-0.459c-0.096-0.221-0.18-0.448-0.249-0.68
		C18.775,6.71,19.186,6.169,19.826,6.165z"/>
	<path fill="#FFFFFF" d="M18.497,15.692c0.649,0.002,1.07,0.698,0.741,1.259c-0.148,0.25-0.345,0.485-0.554,0.694
		c-0.297,0.297-0.774,0.296-1.104,0.032c-0.321-0.26-0.422-0.741-0.198-1.09c0.153-0.236,0.327-0.471,0.535-0.659
		c0.147-0.136,0.366-0.195,0.552-0.287C18.479,15.66,18.488,15.677,18.497,15.692z"/>
	<path fill="#FFFFFF" d="M19.897,14.996c-0.662-0.002-1.064-0.552-0.896-1.111c0.062-0.206,0.134-0.408,0.211-0.608
		c0.17-0.437,0.635-0.653,1.07-0.507c0.437,0.146,0.677,0.602,0.547,1.05c-0.063,0.22-0.136,0.438-0.225,0.647
		C20.458,14.813,20.187,14.984,19.897,14.996z"/>
	<path fill="#FFFFFF" d="M15.672,19.996c-0.48,0-0.801-0.228-0.921-0.572c-0.123-0.351-0.008-0.744,0.297-0.963
		c0.202-0.144,0.417-0.273,0.637-0.393c0.319-0.171,0.724-0.104,0.98,0.146c0.266,0.263,0.355,0.68,0.162,0.994
		C16.542,19.669,16.07,19.873,15.672,19.996z"/>
</g>
<g>
	<path fill="#49E6F2" d="M0-11.144c0.054-0.392,0.094-0.783,0.162-1.17c0.421-2.374,1.525-4.381,3.292-6.019
		c1.551-1.439,3.386-2.324,5.472-2.662c2.676-0.434,5.169,0.085,7.465,1.528c0.064,0.041,0.128,0.081,0.202,0.129
		c0.204-0.292,0.399-0.577,0.598-0.861c0.048-0.068,0.097-0.138,0.155-0.197c0.139-0.133,0.281-0.109,0.368,0.065
		c0.042,0.084,0.068,0.182,0.095,0.274c0.234,0.841,0.466,1.683,0.699,2.522c0.134,0.486-0.041,0.726-0.536,0.769
		c-0.878,0.073-1.754,0.162-2.633,0.23c-0.146,0.011-0.353-0.005-0.435-0.096c-0.137-0.148,0.032-0.303,0.121-0.438
		c0.188-0.284,0.387-0.562,0.612-0.889c-0.517-0.261-1.007-0.552-1.525-0.769c-4.993-2.08-10.628,0.665-12.077,5.878
		c-1.361,4.897,1.713,9.995,6.695,11.1c0.121,0.025,0.244,0.044,0.367,0.07c0.473,0.119,0.758,0.552,0.664,1
		C9.659-0.196,9.226,0.091,8.732,0C7.018-0.323,5.467-1.012,4.1-2.092C1.834-3.883,0.514-6.223,0.098-9.074
		c-0.039-0.26-0.064-0.521-0.097-0.78C0-10.285,0-10.712,0-11.144z"/>
	<path fill="#49E6F2" d="M21.317-10.103c-0.126,0.354-0.334,0.617-0.73,0.68c-0.487,0.08-0.955-0.291-0.979-0.785
		c-0.012-0.214-0.009-0.43-0.007-0.643c0.004-0.445,0.29-0.785,0.723-0.861c0.398-0.069,0.798,0.177,0.943,0.582
		c0.015,0.037,0.033,0.073,0.05,0.11C21.317-10.712,21.317-10.41,21.317-10.103z"/>
	<path fill="#49E6F2" d="M9.443-13.119c0.001-1.104-0.003-2.207,0.001-3.308c0-0.382,0.226-0.667,0.557-0.721
		c0.444-0.074,0.818,0.229,0.823,0.685c0.005,0.708,0.001,1.416,0.001,2.123c0,1.242,0.003,2.481-0.004,3.724
		c-0.002,0.152,0.041,0.23,0.18,0.303c1.768,0.907,2.028,1.009,3.794,1.923c0.342,0.178,0.504,0.438,0.467,0.735
		c-0.067,0.503-0.569,0.765-1.033,0.528c-0.742-0.375-1.479-0.76-2.218-1.143c-1.296-0.672-1.09-0.533-2.391-1.198
		c-0.14-0.072-0.183-0.15-0.183-0.302C9.446-10.886,9.443-12.001,9.443-13.119z"/>
	<path fill="#49E6F2" d="M12.908-1.828c0.523-0.001,0.883,0.295,0.952,0.694c0.074,0.425-0.162,0.845-0.57,0.967
		c-0.25,0.076-0.513,0.133-0.771,0.17c-0.413,0.055-0.799-0.223-0.909-0.631c-0.107-0.408,0.085-0.852,0.479-0.994
		C12.383-1.729,12.703-1.776,12.908-1.828z"/>
	<path fill="#49E6F2" d="M19.826-14.978c0.28,0.014,0.553,0.169,0.701,0.495c0.103,0.226,0.187,0.463,0.256,0.7
		c0.126,0.436-0.115,0.881-0.542,1.03c-0.42,0.146-0.875-0.048-1.056-0.459c-0.096-0.221-0.18-0.448-0.249-0.68
		C18.775-14.433,19.186-14.974,19.826-14.978z"/>
	<path fill="#49E6F2" d="M18.497-5.451c0.649,0.002,1.07,0.698,0.741,1.259c-0.148,0.25-0.345,0.485-0.554,0.694
		c-0.297,0.297-0.774,0.296-1.104,0.032c-0.321-0.26-0.422-0.741-0.198-1.09c0.153-0.236,0.327-0.471,0.535-0.659
		c0.147-0.136,0.366-0.195,0.552-0.287C18.479-5.483,18.488-5.465,18.497-5.451z"/>
	<path fill="#49E6F2" d="M19.897-6.147c-0.662-0.002-1.064-0.552-0.896-1.111c0.062-0.206,0.134-0.408,0.211-0.608
		c0.17-0.437,0.635-0.653,1.07-0.507c0.437,0.146,0.677,0.602,0.547,1.05c-0.063,0.22-0.136,0.438-0.225,0.647
		C20.458-6.33,20.187-6.159,19.897-6.147z"/>
	<path fill="#49E6F2" d="M15.672-1.147c-0.48,0-0.801-0.228-0.921-0.572c-0.123-0.351-0.008-0.744,0.297-0.963
		c0.202-0.144,0.417-0.273,0.637-0.393c0.319-0.171,0.724-0.104,0.98,0.146c0.266,0.263,0.355,0.68,0.162,0.994
		C16.542-1.473,16.07-1.27,15.672-1.147z"/>
</g>
</svg>
