<?xml version="1.0" encoding="utf-8"?>
<!-- Generator: Adobe Illustrator 16.0.0, SVG Export Plug-In . SVG Version: 6.00 Build 0)  -->
<!DOCTYPE svg PUBLIC "-//W3C//DTD SVG 1.1//EN" "http://www.w3.org/Graphics/SVG/1.1/DTD/svg11.dtd">
<svg version="1.1" id="Layer_1" xmlns="http://www.w3.org/2000/svg" xmlns:xlink="http://www.w3.org/1999/xlink" x="0px" y="0px"
	 width="20.254px" height="34.105px" viewBox="0 -17.041 20.254 34.105" enable-background="new 0 -17.041 20.254 34.105"
	 xml:space="preserve">
<g>
	<path fill="#FFFFFF" d="M20.254,16.393V0.678C20.083,0.202,19.75,0,19.151,0C17.14,0.008,15.139,0.01,13.138,0.01H7.33
		c-0.583,0-0.931,0.344-0.932,0.923c-0.002,0.985,0,1.975,0,2.961v0.734c0,0.078,0,0.15,0.013,0.22
		c0.085,0.433,0.472,0.735,0.913,0.699C7.764,5.509,8.095,5.146,8.099,4.7c0.004-0.59,0.003-1.182,0.002-1.771V1.727h10.437v13.619
		H8.102V12.45c0-0.545-0.349-0.926-0.847-0.929c-0.498,0-0.855,0.386-0.856,0.919c-0.002,1.231-0.002,2.465,0,3.698
		c0,0.578,0.348,0.925,0.93,0.925l3.515,0.001l8.478-0.002c0.104,0,0.187-0.007,0.259-0.021
		C19.896,16.978,20.106,16.776,20.254,16.393z"/>
	<path fill="#FFFFFF" d="M11.982,12.034c0.942-0.925,1.899-1.882,2.925-2.924c0.322-0.326,0.322-0.821,0-1.149
		c-0.975-0.99-1.959-1.975-2.925-2.924c-0.319-0.317-0.856-0.303-1.181,0.021c-0.33,0.334-0.334,0.843-0.01,1.183
		c0.235,0.247,0.478,0.487,0.721,0.729c0.121,0.12,0.242,0.24,0.363,0.362c0.033,0.032,0.065,0.069,0.107,0.115L12.2,7.683h-0.492
		c-3.57,0-7.144,0-10.714,0.001c-0.112,0-0.219,0-0.318,0.02C0.359,7.77,0.15,7.97,0,8.355v0.358c0.173,0.478,0.497,0.68,1.082,0.68
		c1.809-0.007,3.604-0.01,5.401-0.01L12.2,9.387l-0.212,0.231c-0.044,0.05-0.077,0.086-0.11,0.12
		c-0.121,0.12-0.24,0.239-0.361,0.358c-0.243,0.241-0.487,0.482-0.723,0.729c-0.326,0.34-0.321,0.851,0.01,1.185
		C11.125,12.337,11.663,12.351,11.982,12.034z"/>
</g>
<g>
	<path fill="#49E6F2" d="M20.254-0.648v-15.715c-0.172-0.477-0.504-0.679-1.104-0.679c-2.011,0.008-4.012,0.011-6.013,0.011H7.33
		c-0.583,0-0.931,0.344-0.932,0.923c-0.002,0.985,0,1.975,0,2.961v0.734c0,0.078,0,0.15,0.013,0.22
		c0.085,0.433,0.472,0.735,0.913,0.699c0.44-0.039,0.771-0.401,0.775-0.848c0.004-0.59,0.003-1.182,0.002-1.771v-1.201h10.437
		v13.619H8.102v-2.896c0-0.545-0.349-0.926-0.847-0.929c-0.498,0-0.855,0.386-0.856,0.919c-0.002,1.231-0.002,2.465,0,3.698
		c0,0.578,0.348,0.925,0.93,0.925l3.515,0.001l8.478-0.002c0.104,0,0.187-0.007,0.259-0.021C19.896-0.063,20.106-0.265,20.254-0.648
		z"/>
	<path fill="#49E6F2" d="M11.982-5.007c0.942-0.925,1.899-1.882,2.925-2.924c0.322-0.326,0.322-0.821,0-1.149
		c-0.975-0.99-1.959-1.975-2.925-2.924c-0.319-0.317-0.856-0.303-1.181,0.021c-0.33,0.334-0.334,0.843-0.01,1.183
		c0.235,0.247,0.478,0.487,0.721,0.729c0.121,0.12,0.242,0.24,0.363,0.362c0.033,0.032,0.065,0.069,0.107,0.115L12.2-9.358h-0.492
		c-3.57,0-7.144,0-10.714,0.001c-0.112,0-0.219,0-0.318,0.02C0.359-9.271,0.15-9.071,0-8.686v0.358
		c0.173,0.478,0.497,0.68,1.082,0.68c1.809-0.007,3.604-0.01,5.401-0.01L12.2-7.654l-0.212,0.231c-0.044,0.05-0.077,0.086-0.11,0.12
		c-0.121,0.12-0.24,0.239-0.361,0.358c-0.243,0.241-0.487,0.482-0.723,0.729c-0.326,0.34-0.321,0.851,0.01,1.185
		C11.125-4.704,11.663-4.69,11.982-5.007z"/>
</g>
</svg>
