<?xml version="1.0" encoding="utf-8"?>
<!-- Generator: Adobe Illustrator 16.0.0, SVG Export Plug-In . SVG Version: 6.00 Build 0)  -->
<!DOCTYPE svg PUBLIC "-//W3C//DTD SVG 1.1//EN" "http://www.w3.org/Graphics/SVG/1.1/DTD/svg11.dtd">
<svg version="1.1" id="Layer_1" xmlns="http://www.w3.org/2000/svg" xmlns:xlink="http://www.w3.org/1999/xlink" x="0px" y="0px"
	 width="29.318px" height="29.321px" viewBox="0 0 29.318 29.321" enable-background="new 0 0 29.318 29.321" xml:space="preserve">
<g>
	<circle fill="none" stroke="#49E6F2" stroke-width="2" stroke-miterlimit="10" cx="14.659" cy="14.66" r="13.659"/>
</g>
<g>
	<path fill-rule="evenodd" clip-rule="evenodd" fill="#49E6F2" d="M8.722,11.688c-0.538,1.002-0.809,2.08-0.803,3.205
		c0.001,0.488,0.051,0.963,0.149,1.412c0.195,0.896,0.571,1.738,1.117,2.512c0.57,0.807,1.313,1.467,2.209,1.961
		c0.911,0.5,1.874,0.783,2.864,0.842c0.912,0.051,1.805-0.078,2.64-0.383c0.794-0.289,1.487-0.682,2.06-1.168
		c1.449-1.232,2.263-2.821,2.42-4.727c0.068-0.805-0.023-1.615-0.271-2.408c-0.428-1.387-1.229-2.529-2.376-3.399
		C18.558,9.4,18.376,9.33,18.177,9.316l-0.064-0.002c-0.476,0-0.901,0.395-0.931,0.861c-0.021,0.365,0.114,0.649,0.424,0.891
		c1.078,0.838,1.705,1.947,1.86,3.297c0.099,0.861-0.038,1.707-0.407,2.516c-0.799,1.756-2.485,2.846-4.402,2.846
		c-0.203,0-0.409-0.014-0.611-0.039c-0.956-0.119-1.811-0.5-2.54-1.131c-0.96-0.83-1.52-1.896-1.659-3.168
		c-0.104-0.961,0.074-1.891,0.531-2.758c0.328-0.621,0.785-1.154,1.398-1.625c0.257-0.197,0.375-0.468,0.351-0.807
		c-0.025-0.37-0.205-0.637-0.535-0.793c-0.139-0.064-0.277-0.098-0.412-0.098c-0.193,0-0.382,0.068-0.563,0.201
		C9.824,10.092,9.188,10.827,8.722,11.688z"/>
	<path fill-rule="evenodd" clip-rule="evenodd" fill="#49E6F2" d="M13.704,7.938c-0.001,1.924,0,3.85,0.001,5.777
		c0,0.066,0.007,0.135,0.019,0.201c0.104,0.547,0.752,0.914,1.275,0.702c0.367-0.147,0.604-0.502,0.604-0.907
		c0.001-0.955,0.001-1.908,0-2.863V7.943c0-0.064-0.005-0.131-0.017-0.195c-0.056-0.313-0.382-0.755-0.933-0.755
		c-0.038,0-0.077,0.001-0.118,0.007C14.085,7.049,13.705,7.479,13.704,7.938z"/>
</g>
</svg>
