<?xml version="1.0" encoding="utf-8"?>
<!-- Generator: Adobe Illustrator 16.0.0, SVG Export Plug-In . SVG Version: 6.00 Build 0)  -->
<!DOCTYPE svg PUBLIC "-//W3C//DTD SVG 1.1//EN" "http://www.w3.org/Graphics/SVG/1.1/DTD/svg11.dtd">
<svg version="1.1" id="Layer_1" xmlns="http://www.w3.org/2000/svg" xmlns:xlink="http://www.w3.org/1999/xlink" x="0px" y="0px"
	 width="20.254px" height="34.108px" viewBox="0 -17.044 20.254 34.108" enable-background="new 0 -17.044 20.254 34.108"
	 xml:space="preserve">
<g>
	<path fill="#FFFFFF" d="M20.254,16.393V0.68C20.083,0.204,19.75,0,19.15,0c-2.012,0.009-4.012,0.012-6.014,0.012L7.329,0.009
		c-0.583,0-0.931,0.347-0.932,0.924c-0.002,0.987,0,1.977,0,2.962v0.736c0,0.077,0,0.149,0.013,0.22
		c0.085,0.432,0.472,0.737,0.913,0.697C7.763,5.509,8.095,5.146,8.099,4.7c0.004-0.59,0.003-1.18,0.002-1.77V1.729h10.437v13.619
		H8.101v-2.896c0-0.546-0.349-0.927-0.847-0.929c-0.498,0-0.855,0.387-0.856,0.918c-0.002,1.231-0.002,2.466,0,3.699
		c0,0.578,0.348,0.924,0.93,0.924l3.515,0.001l8.478-0.001c0.104,0,0.187-0.008,0.259-0.021
		C19.896,16.979,20.105,16.778,20.254,16.393z"/>
	<path fill="#FFFFFF" d="M14.057,9.395c0.594,0,0.92-0.201,1.092-0.677V8.355C15,7.969,14.79,7.77,14.473,7.705
		c-0.098-0.018-0.207-0.02-0.318-0.02C10.583,7.684,7.012,7.684,3.441,7.684H2.948l0.216-0.235C3.208,7.401,3.24,7.366,3.272,7.333
		C3.394,7.21,3.515,7.091,3.636,6.97c0.243-0.24,0.485-0.48,0.72-0.729c0.326-0.34,0.321-0.849-0.01-1.182
		C4.179,4.893,3.964,4.802,3.737,4.802c-0.212,0-0.416,0.082-0.57,0.235C2.2,5.986,1.216,6.972,0.242,7.961
		C-0.08,8.289-0.08,8.784,0.241,9.111c1.027,1.042,1.984,1.999,2.926,2.924c0.32,0.314,0.856,0.303,1.179-0.021
		c0.331-0.334,0.335-0.845,0.01-1.184c-0.237-0.249-0.479-0.489-0.723-0.73C3.512,9.979,3.392,9.86,3.272,9.74
		C3.238,9.706,3.205,9.67,3.161,9.621L2.949,9.387l5.717-0.001C10.463,9.386,12.258,9.387,14.057,9.395z"/>
</g>
<g>
	<path fill="#49E6F2" d="M20.254-0.651v-15.713c-0.171-0.477-0.504-0.681-1.104-0.681c-2.012,0.009-4.012,0.012-6.014,0.012
		l-5.808-0.003c-0.583,0-0.931,0.347-0.932,0.924c-0.002,0.987,0,1.977,0,2.962v0.736c0,0.077,0,0.149,0.013,0.22
		c0.085,0.432,0.472,0.737,0.913,0.697c0.44-0.039,0.772-0.401,0.776-0.848c0.004-0.59,0.003-1.18,0.002-1.77v-1.201h10.437v13.619
		H8.101v-2.896c0-0.546-0.349-0.927-0.847-0.929c-0.498,0-0.855,0.387-0.856,0.918c-0.002,1.231-0.002,2.466,0,3.699
		c0,0.578,0.348,0.924,0.93,0.924l3.515,0.001L19.32,0.02c0.104,0,0.187-0.008,0.259-0.021C19.896-0.065,20.105-0.266,20.254-0.651z
		"/>
	<path fill="#49E6F2" d="M14.057-7.649c0.594,0,0.92-0.201,1.092-0.677v-0.363C15-9.074,14.79-9.274,14.473-9.339
		c-0.098-0.018-0.207-0.02-0.318-0.02C10.583-9.36,7.012-9.36,3.441-9.36H2.948l0.216-0.235C3.208-9.643,3.24-9.678,3.272-9.711
		c0.122-0.123,0.243-0.242,0.364-0.362c0.243-0.24,0.485-0.48,0.72-0.729c0.326-0.34,0.321-0.849-0.01-1.182
		c-0.167-0.166-0.382-0.258-0.609-0.258c-0.212,0-0.416,0.082-0.57,0.235C2.2-11.058,1.216-10.072,0.242-9.083
		C-0.08-8.755-0.08-8.26,0.241-7.933c1.027,1.042,1.984,1.999,2.926,2.924c0.32,0.314,0.856,0.303,1.179-0.021
		c0.331-0.334,0.335-0.845,0.01-1.184c-0.237-0.249-0.479-0.489-0.723-0.73c-0.121-0.12-0.241-0.239-0.361-0.359
		c-0.034-0.034-0.067-0.07-0.111-0.119L2.949-7.656l5.717-0.001C10.463-7.657,12.258-7.656,14.057-7.649z"/>
</g>
</svg>
